<?xml version="1.0" standalone="no"?>
<!DOCTYPE svg PUBLIC "-//W3C//DTD SVG 1.1//EN" "http://www.w3.org/Graphics/SVG/1.1/DTD/svg11.dtd" >
<!--
2013-9-30: Created.
-->
<svg>
<metadata>
Created by iconfont
</metadata>
<defs>

<font id="iconfont" horiz-adv-x="1024" >
  <font-face
    font-family="iconfont"
    font-weight="500"
    font-stretch="normal"
    units-per-em="1024"
    ascent="896"
    descent="-128"
  />
    <missing-glyph />
    
    <glyph glyph-name="x" unicode="x" horiz-adv-x="1001"
d="M281 543q-27 -1 -53 -1h-83q-18 0 -36.5 -6t-32.5 -18.5t-23 -32t-9 -45.5v-76h912v41q0 16 -0.5 30t-0.5 18q0 13 -5 29t-17 29.5t-31.5 22.5t-49.5 9h-133v-97h-438v97zM955 310v-52q0 -23 0.5 -52t0.5 -58t-10.5 -47.5t-26 -30t-33 -16t-31.5 -4.5q-14 -1 -29.5 -0.5
t-29.5 0.5h-32l-45 128h-439l-44 -128h-29h-34q-20 0 -45 1q-25 0 -41 9.5t-25.5 23t-13.5 29.5t-4 30v167h911zM163 247q-12 0 -21 -8.5t-9 -21.5t9 -21.5t21 -8.5q13 0 22 8.5t9 21.5t-9 21.5t-22 8.5zM316 123q-8 -26 -14 -48q-5 -19 -10.5 -37t-7.5 -25t-3 -15t1 -14.5
t9.5 -10.5t21.5 -4h37h67h81h80h64h36q23 0 34 12t2 38q-5 13 -9.5 30.5t-9.5 34.5q-5 19 -11 39h-368zM336 498v228q0 11 2.5 23t10 21.5t20.5 15.5t34 6h188q31 0 51.5 -14.5t20.5 -52.5v-227h-327z" />
    

    
    <glyph glyph-name="diqiu" unicode="&#58908;" d="M503.599 471.174c0.054 0.084 0.133 0.157 0.186 0.242-0.207 0.99-0.377 1.855-0.451 2.471 0.093-0.901 0.191-1.806 0.267-2.714zM696.355 260.703c0.006 0 0.006 0.01 0.006 0.014-0.027 0.012-0.114 0.012-0.133 0.041 0.029-0.03 0.097-0.03 0.126-0.054zM701.29 260.08500000000004c-1.194 0.191-3.874-0.157-4.934 0.617-0.654-2.258 0.332-3.109 4.934-0.617zM513.536 887.806c-277.181 0-501.87-224.689-501.87-501.868 0-277.174 224.689-501.873 501.87-501.873 277.172 0 501.87 224.699 501.87 501.873 0 277.179-224.7 501.868-501.87 501.868zM834.1 691.758c-17.292-0.525-29.33-0.557-43.222-10.144-5.598-3.87-9.399-8.994-16.502-10.987-6.369-1.793-13.245-0.222-19.564-2.366-22.803-7.738-19.189-56.578-49.235-49.202-14.114 3.462-24.061 20.141-31.164 31.031-6.258 9.581-17.652 17.507-9.955 29.499-3.51-0.901-7.253 0.126-10.711-0.531 4.813 10.569 20.956 9.645 23.641 15.047 6.689 13.537-18.414 14.951-25.522 16.829 8.567 9.132 12.905-3.072 21.362-1.001 8.127 2-4.288 12.704-9.164 13.906-1.75 0.433-30.368-7.908-13.804 6.914-20.448 13.036-40.886 26.065-61.34 39.11-3.443-14.502 27.216-22.745 37.229-27.854-1.555-5.988-10.87-14.709-18.003-12.156-6.718 2.41-3.99 13.541-14.134 12.423-7.243-16.841 15.313-11.917 17.41-22.238 2.382-11.758-8.528-6.775-12.722-6.572-1.001 0.052-8.82 8.146-9.241 2.019-0.507-7.277 12.471-4.438 13.387-11.788-15.116-0.612-22.836 4.846-35.142 13.021-14.364 9.533-21.733 8.673-39.331 8.673 5.262 2.163 12.513 3.765 17.013 7.246 2.458 1.902 12.103 11.278 12.739 13.37 2.726 9.031-0.148 8.347-8.789 14.267-7.681 5.255-16.997 14.69-26.305 16.548-33.724 6.732-10.4-30.447-36-35.573 0.438-0.022 0.912-0.044 1.29-0.044h-1.467c0.066 0.004 0.118 0.03 0.178 0.044-5.922 0.211-17.021 1.652-20.836-1.475-2.693-2.199-2.919-11.035-5.932-14.233-5.358-5.713-13.347-6.853-19.742-10.973-6.242-4.025-20.002-14.35-23.668-21.353-13.509-25.81 30.439-33.822 47.101-41.365 7.527-3.41 29.527-8.077 33.626-13.774 5.495-7.649-4.737-14.82 6.739-20.197 3.666-1.712 11.223-2.062 14.381 1.486 5.13 5.781-2.085 7.086-3.314 13.763-2.379 12.854 1.542 7.747 8.007 12.524 13.175 9.727 10.208 10.323 5.468 25.824-2.201 7.216-10.506 27.357-3.201 32.683 9.524 6.948 29.839-3.767 37.142-4.662 8.499-1.04 13.325-12.818 17.957-17.635 3.076-3.198 8.58-9.985 13.954-9.251 8.532 1.168 4.962 8.628 9.91 12.068 13.275 9.206 16.771-3.3 22.062-15.809 4.978-11.748 9.687-16.11 18.545-23.645 4.115-3.508 22.143-16.028 20.443-23.745-1.153-5.199-21.748-13.083-27.255-14.828-20.132-6.377-57.898 10.439-61.953-21.487 7.811 2.908 30.028 21.058 36.691 12.457 3.039-3.903-2.41-9.587-1.126-13.463 3.801-11.62 12.764-7.572 22.163-5.694-0.641-0.399-1.298-0.748-1.991-1.059 12.842 6.599 11.506 5.225 17.398 15.927 1.924 3.498 4.786 11.961 7.495 14.463 9.334 8.587 10.772 2.674 16.555-3.95 1.515-1.745 15.811-22.331 10.722-21.305-16.63 3.335-32.596 2.887-46.389-6.206-7.947-5.249-15.462-12.33-24.953-15.817-2.274-0.831-19.119-2.427-17.129 0.445 2.907 4.188 12.912 6.96 16.859 11.483-10.941 4.506-20.066-5.443-28.662-11.261-9.123-4.316-11.245-12.359-19.012-19.411-3.391-3.074-9.803-3.598-13.134-7.644-3.23-3.926-3.632-10.101-6.691-13.828-2.147-2.61-7.651-1.034-9.892-4.966-2.919-5.139 2.672-9.91 1.446-13.612-2.245-6.727-15.04-12.435-19.961-17.278 0.658 0.631 1.31 1.281 1.952 1.941-4.932-5.174-11.171-8.979-15.021-14.966 1.767-8.451 7.341-28.61 5.787-33.249-5.13-15.259-15.09 8.299-19.131 14.385-13.881 20.914-41.623 6.919-60.576 5.184-24.238-2.218-47.979-33.674-33.027-59.207 7.178-12.244 19.25-16.986 33.099-14.153 12.325 2.524 16.026 19.766 27.632 20.082 21.329 0.569 0.47-20.901-1.376-28.78-1.707-7.298 2.66-7.972 10.173-9.782 5.548-1.326 13.404 2.374 18.213-0.793 3.028-2 2.883-12.951 7.051-9.497-8.204-6.8-6.287-22.924 2.124-28.751 9.325-6.469 20.305-0.479 30.068-2.963 18.433-4.704 9.633 1.405 25.822 11.178 10.925 6.585 12.718-1.242 20.185-1.27 5.083-0.02 8.31 7.307 16.807 5.174 6.927-1.745 9.663-7.092 17.933-8.322 3.391-0.499 6.892 1.276 10.125 0.919 15.295-1.7 27.005-11.472 39.06-20.309 9.933-7.273 16.511-5.798 28.113-9.116 8.478-2.416 24.117-14.682 23.316-25.453-0.143-1.926-7.554-11.611-8.82-15.973 2.17-1.503 17.254 1.868 21.669 2.186-1.451-1.689-11.723-8.906-11.723-5.074 0-1.964 7.268-5.998 9.039-7.251 5.358 17.396 14.16 6.203 24.751 1.893 9.007-3.668 20.091-3.865 29.697-6.154 8.154-1.941 26.133-7.445 32.176-14.11 7.273-8.02 2.245-21.051-3.137-29.03-7.039-10.459-17.654-14.483-22.046-26.789-3.469-9.755-0.865-19.61-2.848-30.423-2.681-14.638-4.829-9.506-14.256-18.437-7.932-7.522-0.133-6.214-10.932-11.009-10.847-4.819-20.398-3.386-27.908-15.287 0.301 0.748 0.545 1.499 0.755 2.282-3.169-4.434-4.754-13.516-6.256-16.496-3.787-7.604-9.009-12.398-14.997-18.732-2.294-2.425-23.394-31.249-24.612-28.932-1.567 3.011-18.203-3.024-18.995 1.27 0.662-3.611-0.157-2.4 3.974-4.481-3.826-23.689-13.844-27.222-37.106-27.461 2-11.386-8.43-9.114-13.278-15.235-2.833-3.574-4.186-13.626-6.15-18.255-1.227-2.907-10.308-14.557-10.308-16.864-0.01-2.127 3.055-5.242 5.924-8.229-16.4-3.244-33.121-5.505-50.105-6.884 3.179 4.006 3.943 7.525-6.181 8.007 2.71 7.363 9.073 11.564 11.769 18.694 1.279 3.364 0.222 4.695 1.302 8.029 3.705 11.508 2.098 7.168 0.01 16.108-4.894 20.954 1.741 26.685 7.454 45.869 5.863 19.714 5.318 45.271 9.075 66.507 1.781 10.162 4.701 31.308 1.172 40.914-3.977 10.818-21.469 19.338-29.479 26.612-11.343 10.335-17.372 21.501-25.793 34.273-4.274 6.486-9.148 12.852-12.482 19.905-7.134 15.082 0.004 6.106 1.205 15.006 1.15 8.601-1.024 16.288 2.39 25.314 3.777 9.981 13.206 16.199 16.304 26.263 2.787 8.959 0.667 20.219-8.537 23.207-5.13 1.674-10.787-2.183-15.94-1.337-7.186 1.164-15.322 6.529-20.96 10.818-7.872 5.998-10.822 15.745-19.205 21.431-7.02 4.739-12.011 1.902-19.519 4.119-7.829 2.307-12.663 11.968-18.979 14.992-9.477 4.533-14.818-1.977-24.825-0.66-8.509 1.114-21.487 10.544-29.437 14.108-16.166 7.236-26.011 15.223-32.476 31.63-5.536 14.07-13.606 20.634-23.11 32.352-9.629 11.874-12.644 21.991-27.487 25.155-1.743 0.379 3.632-12.464 4.186-13.494 5.303-9.82 13.267-18.79 19.674-27.934 9.425-13.468 5.408-15.995-4.179-2.972-10.963 14.899-23.686 29.713-33.197 45.492-3.596 5.963-2.905 9.818-8.835 15.481-5.73 5.471-13.228 8.135-18.997 13.339-20.759 18.67-24.534 43.591-22.167 70.207 0.769 8.675 3.903 15.614 2.522 23.952-1.14 6.925-5.229 12.65-10.337 17.75-1.645 2.622-5.776 9.077-6.015 9.487-4.713 7.829-8.38 15.529-15.867 21.95-4.295 3.7-15.409 12.349-25.874 19.594 47.015 58.639 108.537 105.108 179.111 133.959 0.562-3.548 2.085-7.089 4.369-10.48 5.804-8.605 11.332-7.924 22.66-10.306-1.214-13.147-16.581-13.251-26.982-11.826-12.417 1.705-25.479 5.829-36.235-5.053 5.94-3.572 22.245-17.483 20.08-2.948 11.894 0.595 23.392 0.951 35.028-0.473 4.662-0.573 20.285-5.815 24.518-3.425 1.777 1.005 3.67 9.77 5.55 12.466-3.316-0.018-6.874 1.655-10.177 1.339 7.707 9.866 15.382 2.127 25.189-2.412-10.797-6.56-4.394-22.284 6.162-9.508 8.671 10.506-2.122 18.122-13.13 24.242 11.101 13.886 17.948 15.138 28.393-0.533 1.722 9.665 9.522 5.796 17.676 5.083v2.418c-3.588-0.086-7.421 1.979-10.973 1.605 8.306 13.251 3.005 16.278 14.878 20.604 9.456 3.443 36.431 0.238 39.755 9.127-18.879-3.67-41.687-4.549-58.72-13.134-7.343-3.7-16.092-15.385-23.427-7.79-7.517 7.79 5.377 20.32 11.974 24.138h-1.58c29.87 6.353 60.806 9.763 92.545 9.763 20.508 0 40.663-1.517 60.446-4.22-6.846-3.596-1.785-6.022-6.77-9.697-9.522-7.003-26.425-12.848-37.757-17.274 14.404 0.038 49.273-13.506 55.983 6.698-4.652 0.715-9.289 1.43-13.936 2.145 8.681 5.756 18.362 10.414 28.528 13.828 91.729-18.172 173.318-64.699 235.387-129.986-0.448 0.01-0.889 0.02-1.317 0.01zM915.325 515.552c0.826 1.763 2.755 2.345 3.552 3.801 1.677 3.059 1.302 5.135 3.366 7.761 2.211 2.837 5.191 3.534 7.659 5.75 0.994 0.892 1.549 1.719 2.004 2.562 7.403-20.66 13.305-42.02 17.595-63.951-0.131-0.157-0.203-0.395-0.365-0.527-1.078-0.853-8.112-1.898-9.556-1.948-5.093-0.195-8.878 3.185-12.534 6.365-3.721 3.232-8.101 7.556-10.745 11.74-2.823 4.469-1.081 9.061-0.878 14.166 0.167 4.291-1.922 10.414-0.099 14.282zM921.069 285.443c-8.621 7.489-18.79 17.529-24.919 27.229-6.547 10.343-2.512 20.988-2.033 32.833 0.397 9.963-4.469 24.139-0.236 33.109 1.943 4.095 6.399 5.45 8.233 8.805 3.898 7.105 3.034 11.908 7.818 18.017 5.132 6.56 12.031 8.175 17.748 13.319 5.988 5.393 5.822 9.649 9.613 16.559 2.774 5.055 9.294 13.483 15.467 17.89 3.348-21.941 5.093-44.411 5.093-67.269 0-39.55-5.262-77.881-15.008-114.403-8.308 2.143-15.142 8.13-21.775 13.907z"  horiz-adv-x="1024" />

    
    <glyph glyph-name="ttpodicon" unicode="&#58936;" d="M105.950408-144.603007 105.950408 750.000947l762.893488-442.153212L105.950408-144.603007zM149.643323 673.768729l0-741.247194 632.10128 374.892319L149.643323 673.768729z"  horiz-adv-x="1024" />

    
    <glyph glyph-name="bofang" unicode="&#58944;" d="M647.953392 701.8943l123.517151 0 0-752.718457-123.517151 0 0 752.718457ZM252.529457 701.8943l123.517151 0 0-752.718457-123.517151 0 0 752.718457Z"  horiz-adv-x="1024" />

    
    <glyph glyph-name="bofang1" unicode="&#59256;" d="M152.717705 732.495248c0 5.52483 2.912329 10.876722 8.035 13.735839 5.193279 2.877537 11.263531 2.508123 15.893992-0.420579l687.300538-432.489108c4.38589-2.789533 7.333012-7.700379 7.333012-13.31526 0-5.631254-2.947122-10.543124-7.333012-13.332656L176.646698-145.813578c-4.630461-2.929726-10.700713-3.28072-15.893992-0.438998-5.122671 2.859118-8.035 8.227382-8.035 13.770632L152.717705 732.495248 152.717705 732.495248z"  horiz-adv-x="1024" />

    
    <glyph glyph-name="bofang2" unicode="&#58900;" d="M757.68405 305.999644c-0.017396 0.01842-0.031722 0.037862-0.049119 0.055259-0.900509 0.909719-1.890047 1.672082-2.928702 2.318812L419.640987 575.357372c-2.955308 3.591805-7.42204 5.898337-12.413727 5.924943-8.836249 0.047072-16.214287-6.832615-16.166191-15.669888l0.134053-534.060435c0.047072-8.837272 7.503904-16.041348 16.340153-16.089443 5.331425-0.027629 10.028401 2.564405 12.917194 6.558369l333.460698 258.394025c1.467421 0.741897 2.845815 1.718131 4.069689 2.953262 6.115278 6.185886 6.115278 16.208147 0 22.39301L757.68405 305.999644zM423.449733 64.550547l-0.11768 467.816708 297.709449-237.217726L423.449733 64.550547zM512.523421 807.922125c-281.034674 0-508.866636-227.823775-508.866636-508.866636 0-281.043884 227.831962-508.86766 508.866636-508.86766 281.044908 0 508.875846 227.823775 508.875846 508.86766C1021.399267 580.099373 793.567305 807.922125 512.523421 807.922125zM512.555144-178.606449c-263.195378 0-476.56393 213.361389-476.56393 476.564953 0 263.196401 213.368552 476.564953 476.56393 476.564953S989.120097 561.153882 989.120097 297.958504C989.120097 34.75494 775.750521-178.606449 512.555144-178.606449z"  horiz-adv-x="1024" />

    
    <glyph glyph-name="yuanxingyoujiantou" unicode="&#59550;" d="M511.674589 747.65553c-247.041466 0-447.308629-200.267163-447.308629-447.308629s200.267163-447.308629 447.308629-447.308629 447.308629 200.267163 447.308629 447.308629S758.716055 747.65553 511.674589 747.65553zM465.859124 44.273734l-21.707394 21.707394L678.155251 299.985674 443.428252 534.712673l21.707394 21.707394L721.57004 299.985674 465.859124 44.273734z"  horiz-adv-x="1024" />

    
    <glyph glyph-name="browser" unicode="&#58886;" d="M981.758943 584.62839c-25.674753 60.712757-62.431911 115.234511-109.24817 162.05077-46.816259 46.806026-101.338013 83.563184-162.05077 109.24817-62.196551 26.298969-128.210034 39.775912-196.23943 40.062438-0.73678 0-1.473561 0.010233-2.220574 0.010233s-1.483794-0.010233-2.220574-0.010233c-68.029396-0.286526-134.042879-13.763468-196.23943-40.062438-60.712757-25.684986-115.234511-62.442144-162.05077-109.24817-46.816259-46.816259-83.573417-101.338013-109.24817-162.05077-26.585495-62.871933-40.072671-129.642662-40.072671-198.460004 0-68.827575 13.487176-135.598304 40.072671-198.460004 25.674753-60.712757 62.431911-115.234511 109.24817-162.05077s101.338013-83.573417 162.05077-109.24817c62.196551-26.309202 128.210034-39.775912 196.23943-40.062438 0.73678 0 1.473561-0.010233 2.220574-0.010233s1.483794 0.010233 2.220574 0.010233c68.029396 0.286526 134.042879 13.753235 196.23943 40.062438 60.712757 25.674753 115.234511 62.431911 162.05077 109.24817s83.573417 101.338013 109.24817 162.05077c26.585495 62.8617 40.072671 129.632429 40.072671 198.460004C1021.831614 454.985728 1008.344438 521.756457 981.758943 584.62839zM180.438559 717.729827c43.060725 43.070958 93.212962 76.880995 149.044548 100.498902 19.156292 8.094352 38.70144 14.878872 58.594513 20.302395-24.825408-24.866341-47.553039-57.468876-67.405179-97.173157-12.719696-25.439392-23.914666-53.089126-33.482579-82.509179-44.135196 11.768021-84.576257 27.03575-119.665427 45.445028C171.730223 708.847529 176.038342 713.329611 180.438559 717.729827zM79.939657 568.685279c15.748682 37.227879 36.020378 71.91796 60.559261 103.671151 39.294958-21.561062 85.057211-39.294958 135.158283-52.710502-17.263176-65.348334-27.086915-137.75748-28.591175-213.011418L43.550888 406.63451C45.924959 462.721923 58.133002 517.141346 79.939657 568.685279zM140.488685 99.980341c-24.52865 31.753191-44.800345 66.453505-60.549028 103.671151-21.806655 51.543933-34.014698 105.963357-36.388768 162.05077l203.515137 0c1.50426-75.243705 11.317767-147.642618 28.591175-212.990952C225.566362 139.295765 179.814342 121.551636 140.488685 99.980341zM329.483106-45.891957c-55.831586 23.617907-105.983823 57.427944-149.044548 100.488669-4.400217 4.400217-8.708336 8.882298-12.914124 13.43601 35.099403 18.439978 75.519997 33.717939 119.655194 45.465494 9.578146-29.420053 20.773116-57.069787 33.492812-82.519412 19.85214-39.70428 42.579771-72.306816 67.405179-97.173157C368.184547-60.770829 348.639398-53.986309 329.483106-45.891957zM491.533876-80.704834c-20.998243 4.154623-41.628096 14.725376-61.562101 31.589462-27.005051 22.840194-51.462069 55.954383-72.685439 98.401124-11.379165 22.748097-21.458731 47.430242-30.156834 73.688279 51.503001 10.765181 107.037828 17.017582 164.404374 18.21485L491.533876-80.704834zM491.533876 182.12113c-61.336974-1.238201-120.862695-8.05342-176.110997-19.85214-16.505929 62.135152-25.930579 131.300418-27.424606 203.433272l203.535603 0L491.533876 182.12113zM491.533876 406.63451l-203.535603 0c1.494027 72.15332 10.92891 141.328819 27.434839 203.463971 55.299467-11.82942 114.845655-18.654872 176.100764-19.903306L491.533876 406.63451zM491.533876 631.137657c-57.294914 1.207501-112.850208 7.459902-164.394141 18.24555 8.698103 26.247804 18.777669 50.919716 30.146601 73.667813 21.223371 42.446741 45.680389 75.550697 72.685439 98.401124 19.934005 16.853853 40.563858 27.434839 61.562101 31.589462L491.533876 631.137657zM694.516894 818.228729c55.831586-23.617907 105.983823-57.427944 149.044548-100.498902 4.389984-4.389984 8.68787-8.861832 12.893658-13.405311-34.669614-18.122753-75.438133-33.615609-119.685893-45.424562-9.55768 29.399587-20.75265 57.028854-33.462113 82.458013-19.862373 39.714514-42.590004 72.317049-67.415412 97.18339C655.794987 833.107601 675.350368 826.333314 694.516894 818.228729zM532.466124 853.041606c20.98801-4.164856 41.60763-14.735609 61.531402-31.589462 27.015284-22.850427 51.472302-55.954383 72.695672-98.401124 11.358699-22.727631 21.438265-47.38931 30.136368-73.616648-51.891857-10.857279-107.784842-17.07898-164.363442-18.286482L532.466124 853.041606zM532.466124 590.195176c61.244876 1.207501 120.258944 7.858992 176.100764 19.841907 16.505929-62.124919 25.940812-131.290185 27.434839-203.402573l-203.535603 0L532.466124 590.195176 532.466124 590.195176zM532.466124 365.702262l203.535603 0c-1.50426-72.143087-10.92891-141.328819-27.455305-203.474204-55.289234 11.82942-114.835422 18.654872-176.080298 19.903306L532.466124 365.702262 532.466124 365.702262zM593.997526-49.115372c-19.923772-16.853853-40.543392-27.434839-61.531402-31.589462L532.466124 141.188882c57.284681-1.207501 112.839974-7.459902 164.373675-18.24555-8.698103-26.237571-18.777669-50.909483-30.146601-73.65758C645.469827 6.839011 621.012809-26.275177 593.997526-49.115372zM843.561441 54.596711c-43.060725-43.060725-93.212962-76.870762-149.044548-100.488669-19.166525-8.104585-38.721907-14.878872-58.625212-20.312628 24.825408 24.866341 47.553039 57.468876 67.415412 97.18339 12.719696 25.429159 23.904433 53.078893 33.482579 82.488713 44.145429-11.747555 84.596723-27.025517 119.685893-45.434795C852.269777 63.479009 847.961658 58.996928 843.561441 54.596711zM944.060343 203.651492c-15.748682-37.227879-36.020378-71.91796-60.559261-103.681384-39.305191 21.561062-85.067444 39.294958-135.178749 52.710502 17.283642 65.358567 27.107381 137.767713 28.611641 213.021651l203.515137 0C978.075041 309.614849 965.866998 255.195426 944.060343 203.651492zM776.933975 406.63451c-1.50426 75.233472-11.328 147.632385-28.601408 212.980719 50.848085 13.630439 96.18055 31.323403 135.168516 52.741201 24.538883-31.753191 44.810578-66.443271 60.559261-103.671151 21.806655-51.543933 34.014698-105.963357 36.388768-162.05077L776.933975 406.63451z"  horiz-adv-x="1024" />

    
    <glyph glyph-name="menu" unicode="&#58928;" d="M916.238694 605.277686 138.030703 605.277686c-11.30344 0-20.466124 9.162684-20.466124 20.466124s9.162684 20.466124 20.466124 20.466124L916.238694 646.209934c11.30344 0 20.466124-9.162684 20.466124-20.466124S927.542134 605.277686 916.238694 605.277686zM936.702772 400.47523c0-11.307533-9.15859-20.466124-20.466124-20.466124l-778.203898 0c-11.307533 0-20.466124 9.15859-20.466124 20.466124 0 11.2973 9.15859 20.466124 20.466124 20.466124l778.203898 0C927.544181 420.941354 936.702772 411.77253 936.702772 400.47523zM916.238694 154.736433 138.030703 154.736433c-11.30344 0-20.466124 9.162684-20.466124 20.466124s9.162684 20.466124 20.466124 20.466124L916.238694 195.668681c11.30344 0 20.466124-9.162684 20.466124-20.466124S927.542134 154.736433 916.238694 154.736433z"  horiz-adv-x="1024" />

    
    <glyph glyph-name="rectangular4" unicode="&#58911;" d="M0 675.026146l1024 0 0-87.786977-1024 0 0 87.786977ZM0 346.580329l1024 0 0-87.786977-1024 0 0 87.786977ZM0 12.793544l1024 0 0-87.819689-1024 0 0 87.819689Z"  horiz-adv-x="1024" />

    
    <glyph glyph-name="shuangjiantou1" unicode="&#58929;" d="M511.95-96.668l-35.377 35.378 349.29 349.307-349.29 349.274 35.377 35.378 384.668-384.652zM162.759-96.668l-35.379 35.378 349.29 349.307-349.29 349.274 35.379 35.378 384.666-384.652z"  horiz-adv-x="1024" />

    
    <glyph glyph-name="fenxiang" unicode="&#58915;" d="M212.161058 180.055391c201.774289 231.670121 497.864961 182.874884 497.864961 182.874884l0-184.839338 312.370805 280.487938L710.00344 739.044234l0-186.081235C241.424653 556.16935 212.161058 180.055391 212.161058 180.055391L212.161058 180.055391zM105.990209 614.832018l333.234664 0L439.224873 718.812613 1.941874 718.812613l0-103.958015 76.478236 0L1.603175 614.267519l0-624.041632 104.387034-0.09032L105.990209 614.832018 105.990209 614.832018zM834.486615-9.977332 1.806395-9.977332 1.806395-113.777288l832.680221 0 0 0.13548L938.55753-113.777288 938.55753 177.616759l-104.070915 0L834.486615-9.977332 834.486615-9.977332zM834.486615-9.977332"  horiz-adv-x="1024" />

    
    <glyph glyph-name="a" unicode="&#59036;" d="M641.442094 739.81678266l319.68802 0 0-43.956118-319.68802 0 0 43.956118ZM774.933411 857.25651866l48.075949 0 0-276.79-48.075949 0 0 276.79ZM237.95553 281.45235365999997l-108.885919-277.31598L70.085218 4.136374660000001l313.051879 784.875854 58.984393 0 313.035506-784.875854-58.96802 0-113.427352 277.31598L237.95553 281.45235365999997zM564.614311 326.47782666L455.728392 603.07442266c-9.081843 24.175609-16.645099 46.847981-22.688745 68.01814-6.043646 15.110139-13.606903 33.241079-22.688745 54.411237-9.081843-33.257451-24.191982-72.5432-45.361117-117.887944L256.102842 326.47782666 564.614311 326.47782666z"  horiz-adv-x="1024" />

    
    <glyph glyph-name="a1" unicode="&#59038;" d="M641.442094 739.81678266l319.68802 0 0-43.956118-319.68802 0 0 43.956118ZM237.95553 281.45235365999997l-108.885919-277.31598L70.085218 4.136374660000001l313.051879 784.875854 58.984393 0 313.035506-784.875854-58.96802 0-113.427352 277.31598L237.95553 281.45235365999997zM564.614311 326.47782666L455.728392 603.07442266c-9.081843 24.175609-16.645099 46.847981-22.688745 68.01814-6.043646 15.110139-13.606903 33.241079-22.688745 54.411237-9.081843-33.257451-24.191982-72.5432-45.361117-117.887944L256.102842 326.47782666 564.614311 326.47782666z"  horiz-adv-x="1024" />

    
    <glyph glyph-name="printer" unicode="&#59004;" d="M947.2 607.2l-76.8 0 0 128c0 42.3424-34.4576 76.8-76.8 76.8l-563.2 0c-42.3424 0-76.8-34.4576-76.8-76.8l0-128-76.8 0c-42.3424 0-76.8-34.4576-76.8-76.8l0-460.8c0-42.3424 34.4576-76.8 76.8-76.8l76.8 0 0-128c0-42.3424 34.4576-76.8 76.8-76.8l563.2 0c42.3424 0 76.8 34.4576 76.8 76.8l0 128 76.8 0c42.3424 0 76.8 34.4576 76.8 76.8l0 460.8c0 42.3424-34.4576 76.8-76.8 76.8zM204.8 735.2c0 14.1312 11.4688 25.6 25.6 25.6l563.2 0c14.1312 0 25.6-11.4688 25.6-25.6l0-128-614.4 0 0 128zM793.6-160.8l-563.2 0c-14.1312 0-25.6 11.4688-25.6 25.6l0 332.8 614.4 0 0-332.8c0-14.1312-11.4688-25.6-25.6-25.6zM972.8 69.6c0-14.1312-11.4688-25.6-25.6-25.6l-76.8 0 0 153.6 25.6 0c14.1312 0 25.6 11.4688 25.6 25.6s-11.4688 25.6-25.6 25.6l-768 0c-14.1312 0-25.6-11.4688-25.6-25.6s11.4688-25.6 25.6-25.6l25.6 0 0-153.6-76.8 0c-14.1312 0-25.6 11.4688-25.6 25.6l0 460.8c0 14.1312 11.4688 25.6 25.6 25.6l870.4 0c14.1312 0 25.6-11.4688 25.6-25.6l0-460.8zM742.4 95.2l-460.8 0c-14.1312 0-25.6 11.4688-25.6 25.6s11.4688 25.6 25.6 25.6l460.8 0c14.1312 0 25.6-11.4688 25.6-25.6s-11.4688-25.6-25.6-25.6zM742.4-7.2l-460.8 0c-14.1312 0-25.6 11.4688-25.6 25.6s11.4688 25.6 25.6 25.6l460.8 0c14.1312 0 25.6-11.4688 25.6-25.6s-11.4688-25.6-25.6-25.6zM742.4-109.6l-460.8 0c-14.1312 0-25.6 11.4688-25.6 25.6s11.4688 25.6 25.6 25.6l460.8 0c14.1312 0 25.6-11.4688 25.6-25.6s-11.4688-25.6-25.6-25.6zM844.8 351.2c-42.3424 0-76.8 34.4576-76.8 76.8s34.4576 76.8 76.8 76.8 76.8-34.4576 76.8-76.8-34.4576-76.8-76.8-76.8zM844.8 453.6c-14.1312 0-25.6-11.4688-25.6-25.6s11.4688-25.6 25.6-25.6 25.6 11.4688 25.6 25.6-11.4688 25.6-25.6 25.6z"  horiz-adv-x="1024" />

    
    <glyph glyph-name="sync" unicode="&#59408;" d="M1016.5248 453.3248c-9.984 9.984-26.2144 9.984-36.1984 0l-58.8288-58.8288c-2.6112 105.472-44.9536 204.288-119.8592 279.1424-77.3632 77.3632-180.224 119.9616-289.6384 119.9616-152.2688 0-291.1232-83.712-362.3424-218.4192-6.6048-12.4928-1.8432-28.0064 10.6496-34.6112s28.0064-1.8432 34.6112 10.6496c62.3104 117.9136 183.808 191.1808 317.0816 191.1808 193.9968 0 352.512-154.9824 358.2464-347.5968l-58.5216 58.5216c-9.984 9.984-26.2144 9.984-36.1984 0s-9.984-26.2144 0-36.1984l102.4-102.4c5.0176-5.0176 11.5712-7.4752 18.1248-7.4752s13.1072 2.5088 18.1248 7.4752l102.4 102.4c9.984 9.984 9.984 26.2144 0 36.1984zM863.6928 227.4304c-12.4928 6.6048-28.0064 1.8432-34.6112-10.6496-62.3104-117.9136-183.808-191.1808-317.0816-191.1808-193.9968 0-352.512 154.9824-358.2464 347.5968l58.5216-58.5216c5.0176-5.0176 11.5712-7.4752 18.1248-7.4752s13.1072 2.5088 18.1248 7.4752c9.984 9.984 9.984 26.2144 0 36.1984l-102.4 102.4c-9.984 9.984-26.2144 9.984-36.1984 0l-102.4-102.4c-9.984-9.984-9.984-26.2144 0-36.1984s26.2144-9.984 36.1984 0l58.8288 58.8288c2.6112-105.472 44.9536-204.288 119.8592-279.1424 77.3632-77.3632 180.224-119.9616 289.6384-119.9616 152.2688 0 291.1232 83.712 362.3424 218.4192 6.6048 12.4928 1.8432 28.0064-10.6496 34.6112z"  horiz-adv-x="1025" />

    
    <glyph glyph-name="upload" unicode="&#59415;" d="M896-76.8l-819.2 0c-42.3424 0-76.8 34.4576-76.8 76.8l0 102.4c0 14.1312 11.4688 25.6 25.6 25.6s25.6-11.4688 25.6-25.6l0-102.4c0-14.1312 11.4688-25.6 25.6-25.6l819.2 0c14.1312 0 25.6 11.4688 25.6 25.6l0 102.4c0 14.1312 11.4688 25.6 25.6 25.6s25.6-11.4688 25.6-25.6l0-102.4c0-42.3424-34.4576-76.8-76.8-76.8zM760.5248 453.3248l-256 256c-9.984 9.984-26.2144 9.984-36.1984 0l-256-256c-9.984-9.984-9.984-26.2144 0-36.1984s26.2144-9.984 36.1984 0l212.2752 212.2752 0-527.0016c0-14.1312 11.4688-25.6 25.6-25.6s25.6 11.4688 25.6 25.6l0 527.0016 212.2752-212.2752c5.0176-5.0176 11.5712-7.4752 18.1248-7.4752s13.1072 2.5088 18.1248 7.4752c9.984 9.984 9.984 26.2144 0 36.1984z"  horiz-adv-x="1024" />

    
    <glyph glyph-name="tupian" unicode="&#58893;" d="M515.48928 253.38368l-233.4976 256.096L123.22432 206.6624l0-83.42912 788.6208 0c-100.43776 89.30816-312.25344 280.36992-312.25344 280.36992L515.48928 253.38368zM789.66144 446.12608c43.81056 0 79.29984 36.56192 79.29984 81.73056 0 45.12-35.48928 81.75232-79.29984 81.75232-43.6928 0-79.20384-36.63232-79.20384-81.75232C710.4576 482.688 745.96992 446.12608 789.66144 446.12608zM0 806.4l0-862.31168 1024 0L1024 806.4 0 806.4zM972.58496-1.08416 54.92352-1.08416l-0.04352 749.19808 860.3328 0 0-0.04864 57.37088 0L972.58368-1.08416z"  horiz-adv-x="1024" />

    
    <glyph glyph-name="linkedin" unicode="&#59031;" d="M260.096 740.352c0-27.307008-9.899008-50.516992-29.696-69.632-19.796992-19.115008-45.396992-28.672-76.8-28.672-30.036992 0-54.612992 9.556992-73.728 28.672-19.115008 19.115008-28.672 42.324992-28.672 69.632 0 28.672 9.556992 52.224 28.672 70.656 19.115008 18.432 44.372992 27.648 75.776 27.648 31.403008 0 56.32-9.216 74.752-27.648 18.432-18.432 28.331008-41.984 29.696-70.656 0 0 0 0 0 0m-202.752-808.96c0 0 0 632.832 0 632.832 0 0 196.608 0 196.608 0 0 0 0-632.832 0-632.832 0 0-196.608 0-196.608 0 0 0 0 0 0 0m313.344 430.08c0 58.708992-1.364992 126.292992-4.096 202.752 0 0 169.984 0 169.984 0 0 0 10.24-88.064 10.24-88.064 0 0 4.096 0 4.096 0 40.96 68.267008 105.812992 102.4 194.56 102.4 68.267008 0 123.220992-22.868992 164.864-68.608 41.643008-45.739008 62.464-113.664 62.464-203.776 0 0 0-374.784 0-374.784 0 0-196.608 0-196.608 0 0 0 0 350.208 0 350.208 0 91.476992-33.451008 137.216-100.352 137.216-47.787008 0-81.236992-24.576-100.352-73.728-4.096-8.192-6.144-24.576-6.144-49.152 0 0 0-364.544 0-364.544 0 0-198.656 0-198.656 0 0 0 0 430.08 0 430.08 0 0 0 0 0 0"  horiz-adv-x="1024" />

    
    <glyph glyph-name="yuanjiaojuxingfanyejiantoul" unicode="&#58905;" d="M634.88 650.24l-23.893333 23.893333-266.24-266.24-23.893333-23.893333 23.893333-23.893333 266.24-266.24 23.893333 23.893333-266.24 266.24L634.88 650.24 634.88 650.24zM136.533333-93.866667c-58.026667 0-102.4 44.373333-102.4 102.4l0 750.933333c0 58.026667 44.373333 102.4 102.4 102.4l750.933333 0c58.026667 0 102.4-44.373333 102.4-102.4l0-750.933333c0-58.026667-44.373333-102.4-102.4-102.4L136.533333-93.866667M136.533333-128l750.933333 0c75.093333 0 136.533333 61.44 136.533333 136.533333l0 750.933333c0 75.093333-61.44 136.533333-136.533333 136.533333l-750.933333 0c-75.093333 0-136.533333-61.44-136.533333-136.533333l0-750.933333C0-66.56 58.026667-128 136.533333-128L136.533333-128z"  horiz-adv-x="1024" />

    
    <glyph glyph-name="yuanjiaojuxingfanyejiantour" unicode="&#58906;" d="M389.12 117.76l23.893333-23.893333 266.24 266.24 23.893333 23.893333-23.893333 23.893333-266.24 266.24-23.893333-23.893333 266.24-266.24L389.12 117.76 389.12 117.76zM887.466667 861.866667c58.026667 0 102.4-44.373333 102.4-102.4l0-750.933333c0-58.026667-44.373333-102.4-102.4-102.4l-750.933333 0c-58.026667 0-102.4 44.373333-102.4 102.4l0 750.933333c0 58.026667 44.373333 102.4 102.4 102.4L887.466667 861.866667M887.466667 896l-750.933333 0c-75.093333 0-136.533333-61.44-136.533333-136.533333l0-750.933333c0-75.093333 61.44-136.533333 136.533333-136.533333l750.933333 0c75.093333 0 136.533333 61.44 136.533333 136.533333l0 750.933333C1024 834.56 965.973333 896 887.466667 896L887.466667 896z"  horiz-adv-x="1024" />

    
    <glyph glyph-name="qq" unicode="&#59000;" d="M855.644129 316.897719c-9.101285 22.179139-20.187785 42.674938-32.132838 60.498886 0.50756 0.398066 1.02433 0.784876 1.530866 1.184989 6.954389 5.479805-0.662079 29.65439-8.249895 51.811016-7.013741 20.682042-22.75833 41.032532-23.313985 40.520879-1.531889-1.430582-3.088338-2.828418-4.638647-4.231371 7.463995 25.149796 11.487635 51.761897 11.487635 79.31237 0 154.766876-126.379339 280.213983-282.396695 280.213983-155.881257 0-282.350646-125.447107-282.350646-280.213983 0-19.019169 1.919722-37.5932 5.559623-55.54813-1.567705 1.402953-3.071965 2.711761-4.446265 3.858888-4.666276 0-13.561877-26.732851-17.445324-48.557926-5.568832-31.15865-8.940626-44.163849-8.940626-44.163849s-0.647753-5.959735 1.489934-7.826246c0.12689-0.110517 0.254803-0.218988 0.381693-0.329505-13.802354-17.029862-26.961048-37.148062-38.192857-59.519582-40.023552-79.836303-34.063817-160.487158-9.422603-173.582407 12.662391-6.765077 45.638433 14.367219 78.029144 53.615105 5.086855-44.666292 25.700335-85.563748 57.307194-118.895901-53.588499-16.675798-88.785116-48.403406-83.963297-80.605829 0.497327-3.371794 1.424442-6.642281 2.738367-9.80532 7.645121-40.618093 77.0437-66.459644 156.545382-57.868989 61.463864 6.664793 111.098307 31.978319 128.416741 62.065568 3.361561-0.102331 6.733355-0.171915 10.125615-0.171915 5.864568 0 11.68104 0.172939 17.454534 0.476861 17.272385-30.316469 65.73412-56.335053 125.242446-63.937195 76.630285-9.723455 143.169747 14.684444 150.501736 54.782697 1.797949 3.89675 3.004427 7.978718 3.542686 12.231579 4.133134 32.31294-30.852682 64.751746-83.48746 82.175581 30.538527 31.952736 50.946322 70.917166 57.17928 113.529683 28.763091-39.327704 58.190307-64.446801 73.571622-61.0791C875.918895 150.810007 888.939443 235.644137 855.644129 316.897719z"  horiz-adv-x="1024" />

    
    <glyph glyph-name="shuangjiantou" unicode="&#59541;" d="M870.913393 413.68202 520.324596 758.062418c-14.826684 14.495132-38.801724 14.495132-53.632501 0-14.830777-14.563694-14.830777-38.22458 0-52.788274l326.247412-320.344982L466.691071 64.45729c-14.830777-14.563694-14.830777-38.1069 0-52.6665 14.830777-14.563694 38.806841-14.563694 53.632501 0l350.58982 344.254531c8.159844 7.950066 11.431354 18.504446 10.753925 28.883841C882.34577 395.236925 879.07426 405.73707 870.913393 413.68202L870.913393 413.68202zM606.950536 384.929162c0.74599 10.311857-2.588965 20.807908-10.626012 28.752858L245.730611 758.062418c-14.826684 14.495132-38.801724 14.495132-53.756321 0-14.827707-14.563694-14.702863-38.22458 0-52.788274l326.374302-320.344982L191.974289 64.45729c-14.702863-14.563694-14.827707-38.1069 0-52.6665 14.954597-14.563694 38.929638-14.563694 53.756321 0l350.593913 344.254531C604.361571 363.994364 607.696526 374.549767 606.950536 384.929162L606.950536 384.929162zM606.950536 384.929162"  horiz-adv-x="1024" />

    
    <glyph glyph-name="sjiantou04" unicode="&#59542;" d="M153.087 354.318l350.588-344.38c14.827-14.495 38.802-14.495 53.633 0 14.831 14.564 14.831 38.225 0 52.788l-326.247 320.346 326.248 320.472c14.831 14.564 14.831 38.107 0 52.667-14.831 14.564-38.807 14.564-53.633 0l-350.591-344.255c-8.159-7.95-11.431-18.504-10.754-28.884-0.678-10.307 2.593-20.808 10.754-28.753l0 0zM417.049 383.072c-0.746-10.312 2.589-20.808 10.626-28.753l350.594-344.38c14.827-14.495 38.802-14.495 53.756 0 14.828 14.564 14.703 38.225 0 52.788l-326.374 320.345 326.374 320.472c14.703 14.564 14.828 38.107 0 52.667-14.955 14.564-38.93 14.564-53.756 0l-350.593-344.255c-8.037-7.949-11.372-18.504-10.626-28.884l0 0zM417.049 383.072z"  horiz-adv-x="1024" />

    
    <glyph glyph-name="danxuanfill" unicode="&#59508;" d="M512 830.016611c-245.919634 0-446.016611-200.095256-446.016611-446.016611 0-245.952318 200.064292-446.016611 446.016611-446.016611S958.016611 138.047682 958.016611 384C958.016611 629.919634 757.952318 830.016611 512 830.016611zM512 223.99914c-88.223841 0-160.00086 71.775299-160.00086 160.00086s71.775299 159.99914 160.00086 159.99914 160.00086-71.775299 160.00086-159.99914S600.223841 223.99914 512 223.99914z"  horiz-adv-x="1024" />

    
    <glyph glyph-name="danxuan" unicode="&#59546;" d="M512 830.016611c-245.919634 0-446.016611-200.095256-446.016611-446.016611 0-245.952318 200.064292-446.016611 446.016611-446.016611S958.016611 138.047682 958.016611 384C958.016611 629.919634 757.952318 830.016611 512 830.016611zM512 1.983389c-210.655557 0-382.016611 171.392017-382.016611 382.016611 0 210.655557 171.359333 382.016611 382.016611 382.016611 210.624593 0 382.016611-171.359333 382.016611-382.016611C894.016611 173.375407 722.624593 1.983389 512 1.983389zM512 543.99914c-88.223841 0-160.00086-71.775299-160.00086-159.99914s71.775299-160.00086 160.00086-160.00086 160.00086 71.775299 160.00086 160.00086S600.223841 543.99914 512 543.99914z"  horiz-adv-x="1024" />

    
    <glyph glyph-name="fangxingweixuanzhong" unicode="&#59548;" d="M832-32.00086l-640 0c-52.9288 0-96.00086 43.07206-96.00086 95.99914l0 640c0 52.9288 43.07206 96.00086 96.00086 96.00086l640 0c52.92708 0 95.99914-43.07206 95.99914-96.00086l0-640C928.00086 11.0712 884.9288-32.00086 832-32.00086zM192 735.99914c-17.632039 0-32.00086-14.368821-32.00086-32.00086l0-640c0-17.664722 14.368821-31.99914 32.00086-31.99914l640 0c17.664722 0 31.99914 14.336138 31.99914 31.99914l0 640c0 17.632039-14.336138 32.00086-31.99914 32.00086L192 735.99914z"  horiz-adv-x="1024" />

    
    <glyph glyph-name="fangxingxuanzhongfill" unicode="&#59549;" d="M832 799.99914l-640 0c-52.9288 0-96.00086-43.07206-96.00086-96.00086l0-640c0-52.92708 43.07206-95.99914 96.00086-95.99914l640 0c52.92708 0 95.99914 43.07206 95.99914 95.99914l0 640C928.00086 756.9288 884.9288 799.99914 832 799.99914zM727.231286 457.567746 471.00766 198.560839c-0.063647-0.063647-0.192662-0.096331-0.25631-0.192662-0.096331-0.063647-0.096331-0.192662-0.192662-0.25631-2.048757-1.983389-4.575729-3.19957-6.944443-4.544765-1.183497-0.672598-2.143368-1.696116-3.392232-2.176052-3.839484-1.536138-7.904314-2.33603-11.967424-2.33603-4.095794 0-8.224271 0.799892-12.096439 2.399677-1.279828 0.543583-2.303346 1.632469-3.519527 2.303346-2.368714 1.343475-4.832039 2.528692-6.880796 4.544765-0.063647 0.063647-0.096331 0.192662-0.159978 0.25631-0.063647 0.096331-0.192662 0.096331-0.25631 0.192662l-126.016611 129.503454c-12.320065 12.672705-12.032791 32.928047 0.639914 45.248112 12.672705 12.287381 32.895364 12.063755 45.248112-0.639914l103.26354-106.112189 233.279613 235.808305c12.416396 12.576374 32.704421 12.672705 45.248112 0.25631C739.520387 490.368499 739.647682 470.111437 727.231286 457.567746z"  horiz-adv-x="1024" />

    
    <glyph glyph-name="fangxingxuanzhong" unicode="&#59555;" d="M726.976697 502.815858c-12.54369 12.447359-32.831716 12.320065-45.248112-0.25631L448.447252 266.751243l-103.26354 106.112189c-12.352748 12.703669-32.60809 12.927295-45.248112 0.639914-12.672705-12.320065-12.959978-32.60809-0.639914-45.248112l126.016611-129.503454c0.063647-0.096331 0.192662-0.096331 0.25631-0.192662 0.063647-0.063647 0.096331-0.192662 0.159978-0.25631 2.016073-1.983389 4.512082-3.19957 6.880796-4.544765 1.247144-0.672598 2.239699-1.792447 3.519527-2.303346 3.872168-1.599785 8.000645-2.399677 12.096439-2.399677 4.06483 0 8.12794 0.799892 11.967424 2.33603 1.247144 0.512619 2.208735 1.536138 3.392232 2.176052 2.399677 1.343475 4.895686 2.528692 6.944443 4.544765 0.063647 0.063647 0.096331 0.192662 0.192662 0.25631 0.063647 0.096331 0.159978 0.127295 0.25631 0.192662l256.223626 259.008628C739.647682 470.111437 739.520387 490.368499 726.976697 502.815858zM832-32.00086l-640 0c-52.9288 0-96.00086 43.07206-96.00086 95.99914l0 640c0 52.9288 43.07206 96.00086 96.00086 96.00086l640 0c52.92708 0 95.99914-43.07206 95.99914-96.00086l0-640C928.00086 11.0712 884.9288-32.00086 832-32.00086zM192 735.99914c-17.632039 0-32.00086-14.368821-32.00086-32.00086l0-640c0-17.664722 14.368821-31.99914 32.00086-31.99914l640 0c17.664722 0 31.99914 14.336138 31.99914 31.99914l0 640c0 17.632039-14.336138 32.00086-31.99914 32.00086L192 735.99914z"  horiz-adv-x="1024" />

    
    <glyph glyph-name="guanbi2fill" unicode="&#59556;" d="M512 832c-247.00852 0-448-200.960516-448-448S264.960516-64 512-64c247.00852 0 448 200.960516 448 448S759.039484 832 512 832zM694.752211 246.015966c12.480043-12.54369 12.447359-32.768069-0.063647-45.248112-6.239161-6.208198-14.399785-9.34412-22.591372-9.34412-8.224271 0-16.415858 3.135923-22.65674 9.407768l-137.60043 138.016718-138.047682-136.576912c-6.239161-6.14455-14.368821-9.247789-22.496761-9.247789-8.255235 0-16.479505 3.168606-22.751351 9.504099-12.416396 12.576374-12.320065 32.800753 0.25631 45.248112l137.887703 136.384249-137.376804 137.824056c-12.480043 12.512727-12.447359 32.768069 0.063647 45.248112 12.512727 12.512727 32.735385 12.447359 45.248112-0.063647l137.567746-137.984034 138.047682 136.575192c12.54369 12.447359 32.831716 12.320065 45.248112-0.25631 12.447359-12.576374 12.320065-32.831716-0.25631-45.248112L557.344443 383.872705 694.752211 246.015966z"  horiz-adv-x="1024" />

    
    <glyph glyph-name="guanbi2" unicode="&#59557;" d="M512-64c-247.039484 0-448 200.960516-448 448S264.960516 832 512 832 960 631.039484 960 384 759.039484-64 512-64zM512 767.712727c-211.584464 0-383.712727-172.128262-383.712727-383.712727 0-211.551781 172.128262-383.712727 383.712727-383.712727 211.551781 0 383.712727 172.159226 383.712727 383.712727C895.712727 595.584464 723.551781 767.712727 512 767.712727zM557.05545 382.623841l138.367639 136.864185c12.576374 12.416396 12.672705 32.671738 0.25631 45.248112s-32.704421 12.672705-45.248112 0.25631l-138.560301-137.024163-136.447897 136.864185c-12.512727 12.512727-32.735385 12.576374-45.248112 0.063647-12.512727-12.480043-12.54369-32.735385-0.063647-45.248112l136.255235-136.671523-137.376804-135.904314c-12.576374-12.447359-12.672705-32.671738-0.25631-45.248112 6.271845-6.335493 14.496116-9.504099 22.751351-9.504099 8.12794 0 16.25588 3.103239 22.496761 9.247789l137.567746 136.064292 138.687596-139.136568c6.240882-6.271845 14.432469-9.407768 22.65674-9.407768 8.191587 0 16.352211 3.135923 22.591372 9.34412 12.512727 12.480043 12.54369 32.704421 0.063647 45.248112L557.05545 382.623841z"  horiz-adv-x="1024" />

    
    <glyph glyph-name="jiahao" unicode="&#59558;" d="M512-62.016611c-119.648434 0-232.1288 46.367961-316.736783 130.559656-84.640667 84.255342-131.263217 196.255772-131.263217 315.455235 0 119.168499 46.624271 231.199892 131.232254 315.424271 84.607983 84.191695 197.088348 130.559656 316.736783 130.559656s232.1288-46.367961 316.704099-130.559656c84.67163-84.224378 131.263217-196.255772 131.263217-315.391587 0.032684-119.199462-46.591587-231.232576-131.263217-315.455235C744.1288-15.615966 631.648434-62.016611 512-62.016611zM512 766.016611c-102.623626 0-199.071738-39.743475-271.583282-111.936783-72.480581-72.12794-112.416718-168.063432-112.416718-270.079828s39.903454-197.951888 112.384034-270.047144c72.511544-72.191587 168.959656-111.936783 271.583282-111.936783 102.592662 0 199.071738 39.743475 271.583282 111.936783 72.480581 72.160624 112.416718 168.063432 112.384034 270.079828 0 102.016396-39.903454 197.919204-112.384034 270.016181C711.071738 726.240452 614.592662 766.016611 512 766.016611zM736.00086 415.99914 544.00086 415.99914 544.00086 607.99914c0 17.664722-14.336138 32.00086-32.00086 32.00086s-32.00086-14.336138-32.00086-32.00086l0-192L288.00086 415.99914c-17.664722 0-32.00086-14.336138-32.00086-32.00086s14.336138-32.00086 32.00086-32.00086l192 0 0-192c0-17.695686 14.336138-32.00086 32.00086-32.00086s32.00086 14.303454 32.00086 32.00086L544.00258 351.99914l192 0c17.695686 0 32.00086 14.336138 32.00086 32.00086S753.696546 415.99914 736.00086 415.99914z"  horiz-adv-x="1024" />

    
    <glyph glyph-name="jiahao1" unicode="&#59559;" d="M863.328262 414.659105l-317.344013-0.099772L545.984249 733.183174c0 17.664722-14.336138 32.00086-32.00086 32.00086s-31.99914-14.336138-31.99914-32.00086l0-318.400215-322.368714 0.17718c-0.032684 0-0.063647 0-0.096331 0-17.632039 0-31.935493-14.239806-32.00086-31.904529-0.096331-17.664722 14.208843-32.031824 31.871845-32.095471l322.59234-0.17718 0-319.167424c0-17.695686 14.336138-32.00086 31.99914-32.00086s32.00086 14.303454 32.00086 32.00086L545.982529 350.559333l317.087703 0.099772c0.063647 0 0.096331 0 0.127295 0 17.632039 0 31.935493 14.239806 32.00086 31.904529S880.960301 414.595458 863.328262 414.659105z"  horiz-adv-x="1024" />

    
    <glyph glyph-name="jiahao2fill" unicode="&#59560;" d="M828.704099 699.424271C744.096116 783.615966 631.648434 829.983927 512 829.983927s-232.1288-46.367961-316.736783-130.559656C110.624271 615.199892 64 503.168499 64 384c0-119.199462 46.624271-231.199892 131.232254-315.424271 84.607983-84.191695 197.088348-130.559656 316.736783-130.559656s232.1288 46.367961 316.704099 130.559656c84.67163 84.255342 131.295901 196.288456 131.263217 315.455235C959.967316 503.199462 913.375729 615.199892 828.704099 699.424271zM736.00086 351.99914L544.00086 351.99914l0-192c0-17.695686-14.336138-32.00086-32.00086-32.00086s-32.00086 14.303454-32.00086 32.00086L479.99914 351.99914 288.00086 351.99914c-17.664722 0-32.00086 14.336138-32.00086 32.00086s14.336138 32.00086 32.00086 32.00086l192 0L480.00086 607.99914c0 17.664722 14.336138 32.00086 32.00086 32.00086s32.00086-14.336138 32.00086-32.00086l0-192 192 0c17.695686 0 32.00086-14.336138 32.00086-32.00086S753.696546 351.99914 736.00086 351.99914z"  horiz-adv-x="1024" />

    
    <glyph glyph-name="jianhao" unicode="&#59561;" d="M863.74455 351.99914 163.424056 351.99914c-17.664722 0-32.00086 14.336138-32.00086 32.00086s14.336138 32.00086 32.00086 32.00086l700.320495 0c17.695686 0 31.99914-14.336138 31.99914-32.00086S881.440237 351.99914 863.74455 351.99914z"  horiz-adv-x="1024" />

    
    <glyph glyph-name="tishifill" unicode="&#59562;" d="M512 830.016611c-245.952318 0-446.016611-200.064292-446.016611-446.016611S266.047682-62.016611 512-62.016611 958.016611 138.047682 958.016611 384 757.952318 830.016611 512 830.016611zM544.00086 159.99914c0-17.695686-14.303454-32.00086-32.00086-32.00086s-32.00086 14.303454-32.00086 32.00086L479.99914 448c0 17.695686 14.303454 32.00086 32.00086 32.00086 17.695686 0 32.00086-14.303454 32.00086-32.00086L544.00086 159.99914zM512 543.99914c-26.496224 0-48.00043 21.53689-48.00043 48.00043 0 26.527187 21.504206 48.00043 48.00043 48.00043s48.00043-21.471523 48.00043-48.00043C560.00043 565.53603 538.496224 543.99914 512 543.99914z"  horiz-adv-x="1024" />

    
    <glyph glyph-name="tishi1" unicode="&#59563;" d="M512-62.016611c-245.919634 0-446.016611 200.064292-446.016611 446.016611 0 245.919634 200.095256 446.016611 446.016611 446.016611 245.952318 0 446.016611-200.064292 446.016611-446.016611S757.952318-62.016611 512-62.016611zM512 766.016611c-210.655557 0-382.016611-171.359333-382.016611-382.016611 0-210.624593 171.359333-382.016611 382.016611-382.016611 210.624593 0 382.016611 171.359333 382.016611 382.016611S722.624593 766.016611 512 766.016611zM463.99957 591.99957c0-26.509985 21.490445-48.00043 48.00043-48.00043s48.00043 21.490445 48.00043 48.00043-21.490445 48.00043-48.00043 48.00043S463.99957 618.509555 463.99957 591.99957zM512 128c-17.664722 0-32.00086 14.303454-32.00086 32.00086L479.99914 448c0 17.664722 14.336138 32.00086 32.00086 32.00086s32.00086-14.336138 32.00086-32.00086l0-287.99914C544.00086 142.303454 529.664722 128 512 128z"  horiz-adv-x="1024" />

    
    <glyph glyph-name="wenhaofill" unicode="&#59564;" d="M512 832c-247.039484 0-448-200.960516-448-448S264.960516-64 512-64 960 136.960516 960 384 759.039484 832 512 832zM512 63.647359c-26.496224 0-48.00043 21.504206-48.00043 48.00043 0 26.496224 21.504206 48.00043 48.00043 48.00043s48.00043-21.504206 48.00043-48.00043S538.496224 63.647359 512 63.647359zM600.576482 390.815428c-27.839699-27.808735-56.575622-56.544658-56.575622-82.368284l0-54.112297c0-17.664722-14.336138-32.00086-32.00086-32.00086s-32.00086 14.336138-32.00086 32.00086l0 54.112297c0 52.352533 39.999785 92.352318 75.32751 127.647359 25.887273 25.887273 52.67249 52.639806 52.67249 73.984034 0 53.343368-43.07206 96.735385-95.99914 96.735385-53.823303 0-95.99914-41.535923-95.99914-94.559333 0-17.664722-14.336138-31.99914-32.00086-31.99914s-32.00086 14.336138-32.00086 31.99914c0 87.423948 71.775299 158.559333 160.00086 158.559333s160.00086-72.095256 160.00086-160.735385C672.00086 462.208843 635.680581 425.919527 600.576482 390.815428z"  horiz-adv-x="1024" />

    
    <glyph glyph-name="wenhao" unicode="&#59565;" d="M463.99957 111.647789c0-26.509985 21.490445-48.00043 48.00043-48.00043s48.00043 21.490445 48.00043 48.00043c0 26.509985-21.490445 48.00043-48.00043 48.00043S463.99957 138.157774 463.99957 111.647789zM512-64c-247.039484 0-448 200.960516-448 448S264.960516 832 512 832 960 631.039484 960 384 759.039484-64 512-64zM512 767.712727c-211.584464 0-383.712727-172.128262-383.712727-383.712727 0-211.551781 172.128262-383.712727 383.712727-383.712727 211.551781 0 383.712727 172.159226 383.712727 383.712727C895.712727 595.584464 723.551781 767.712727 512 767.712727zM512 222.304744c-17.664722 0-32.00086 14.336138-32.00086 31.99914l0 54.112297c0 52.352533 39.999785 92.352318 75.32751 127.647359 25.887273 25.919957 52.67249 52.67249 52.67249 74.016718 0 53.343368-43.07206 96.735385-95.99914 96.735385-53.823303 0-95.99914-41.535923-95.99914-94.559333 0-17.664722-14.336138-31.99914-32.00086-31.99914s-32.00086 14.336138-32.00086 31.99914c0 87.423948 71.775299 158.559333 160.00086 158.559333s160.00086-72.095256 160.00086-160.735385c0-47.904099-36.32028-84.191695-71.424378-119.295794-27.839699-27.776052-56.575622-56.511974-56.575622-82.3356l0-54.112297C544.00086 236.671845 529.664722 222.304744 512 222.304744z"  horiz-adv-x="1024" />

    
    <glyph glyph-name="xuanze" unicode="&#59566;" d="M887.904744 597.79148c-12.863647 12.063755-33.151673 11.487488-45.215428-1.408843L415.935493 142.016181 182.815858 371.712619c-12.607338 12.416396-32.8644 12.287381-45.280796-0.319957-12.416396-12.576374-12.256417-32.8644 0.352641-45.248112l256.479935-252.671415c0.096331-0.096331 0.223626-0.127295 0.319957-0.223626s0.127295-0.223626 0.223626-0.319957c2.016073-1.919742 4.448434-3.008628 6.784464-4.288456 1.152533-0.672598 2.143368-1.663432 3.359548-2.143368 3.775837-1.47249 7.775299-2.239699 11.743798-2.239699 4.192125 0 8.384249 0.832576 12.287381 2.496009 1.312512 0.543583 2.33603 1.663432 3.552211 2.368714 2.399677 1.408843 4.895686 2.59234 6.944443 4.67206 0.096331 0.096331 0.127295 0.25631 0.223626 0.352641 0.063647 0.096331 0.192662 0.127295 0.287273 0.223626L889.277463 552.579492C901.439269 565.408735 900.768391 585.664077 887.904744 597.79148z"  horiz-adv-x="1024" />

    
    <glyph glyph-name="yuanxingweixuanzhong" unicode="&#59567;" d="M512-64c-247.039484 0-448 200.960516-448 448S264.960516 832 512 832 960 631.039484 960 384 759.039484-64 512-64zM512 768c-211.744443 0-384-172.255557-384-384s172.255557-384 384-384 384 172.255557 384 384S723.744443 768 512 768z"  horiz-adv-x="1024" />

    
    <glyph glyph-name="yuanxingxuanzhongfill" unicode="&#59568;" d="M512 830.016611c-245.919634 0-446.016611-200.095256-446.016611-446.016611 0-245.952318 200.064292-446.016611 446.016611-446.016611S958.016611 138.047682 958.016611 384C958.016611 629.919634 757.952318 830.016611 512 830.016611zM727.231286 457.567746 471.00766 198.560839c-0.063647-0.063647-0.192662-0.096331-0.25631-0.192662-0.096331-0.063647-0.096331-0.192662-0.192662-0.25631-2.048757-1.983389-4.575729-3.19957-6.944443-4.544765-1.183497-0.672598-2.143368-1.696116-3.392232-2.176052-3.839484-1.536138-7.904314-2.33603-11.967424-2.33603-4.095794 0-8.224271 0.799892-12.096439 2.399677-1.279828 0.543583-2.303346 1.632469-3.519527 2.303346-2.368714 1.343475-4.832039 2.528692-6.880796 4.544765-0.063647 0.063647-0.096331 0.192662-0.159978 0.25631-0.063647 0.096331-0.192662 0.096331-0.25631 0.192662l-126.016611 129.503454c-12.320065 12.672705-12.032791 32.928047 0.639914 45.248112 12.672705 12.287381 32.895364 12.063755 45.248112-0.639914l103.26354-106.112189 233.279613 235.839269c12.416396 12.576374 32.704421 12.703669 45.248112 0.25631C739.520387 490.399462 739.647682 470.14412 727.231286 457.567746z"  horiz-adv-x="1024" />

    
    <glyph glyph-name="yuanxingxuanzhong" unicode="&#59569;" d="M512-64c-247.039484 0-448 200.960516-448 448S264.960516 832 512 832 960 631.039484 960 384 759.039484-64 512-64zM512 767.712727c-211.584464 0-383.712727-172.128262-383.712727-383.712727 0-211.551781 172.128262-383.712727 383.712727-383.712727 211.551781 0 383.712727 172.159226 383.712727 383.712727C895.712727 595.584464 723.551781 767.712727 512 767.712727zM726.976697 502.815858c-12.54369 12.447359-32.831716 12.320065-45.248112-0.25631l-233.279613-235.839269-103.26354 106.112189c-12.352748 12.703669-32.60809 12.927295-45.248112 0.639914-12.672705-12.320065-12.959978-32.60809-0.639914-45.248112l126.016611-129.503454c0.063647-0.096331 0.192662-0.096331 0.25631-0.192662 0.063647-0.063647 0.096331-0.192662 0.159978-0.25631 2.016073-1.983389 4.512082-3.19957 6.880796-4.544765 1.247144-0.672598 2.239699-1.792447 3.519527-2.303346 3.872168-1.599785 8.000645-2.399677 12.096439-2.399677 4.06483 0 8.12794 0.799892 11.967424 2.33603 1.247144 0.512619 2.208735 1.536138 3.392232 2.176052 2.399677 1.343475 4.895686 2.528692 6.944443 4.544765 0.063647 0.063647 0.096331 0.192662 0.192662 0.25631 0.063647 0.096331 0.159978 0.127295 0.25631 0.192662l256.223626 259.008628C739.647682 470.14412 739.520387 490.399462 726.976697 502.815858z"  horiz-adv-x="1024" />

    
    <glyph glyph-name="biaoxingfill" unicode="&#59570;" d="M957.258525 491.76684c-3.78431 11.352931-13.589115 19.609609-25.458088 21.501764l-270.406182 41.799429L540.640349 813.605241c-5.332437 11.180917-16.513355 18.40551-28.898371 18.40551 0 0 0 0 0 0-12.385016 0-23.565933-7.052579-28.898371-18.40551l-121.78599-258.021166L90.135394 514.816731c-11.868974-1.720141-21.673778-9.976818-25.630102-21.32975s-1.032085-23.909961 7.396607-32.510667L268.342012 258.859735 221.38216-25.995632c-2.064169-12.040988 3.096254-24.25399 13.073072-31.306568 9.976818-7.052579 23.221905-7.740635 33.88678-1.892155L510.193852 73.772552l241.335797-133.826978c4.816395-2.580212 10.148833-3.956325 15.48127-3.956325 0.172014 0 0.516042 0 0.688056 0 17.717453 0 31.994625 14.277171 31.994625 31.994625 0 3.956325-0.688056 7.740635-2.064169 11.352931l-44.895683 278.662859 196.956157 201.256509C958.118596 467.856879 961.042836 480.413909 957.258525 491.76684z"  horiz-adv-x="1024" />

    
    <glyph glyph-name="biaoxing" unicode="&#59571;" d="M767.010919-63.838737c-5.332437 0-10.664875 1.376113-15.48127 3.956325l-241.335797 133.826978-241.851839-132.966907c-10.664875-5.84848-23.909961-5.160423-33.88678 1.892155-9.976818 7.052579-15.137242 19.26558-13.073072 31.306568L268.342012 258.859735 71.901898 460.976314c-8.256677 8.428691-11.180917 20.985721-7.396607 32.166639 3.612296 11.352931 13.245087 19.609609 24.942046 21.673778l154.984714 26.662187c17.545439 2.92424 34.058794-8.77272 36.983034-26.146145s-8.77272-33.88678-26.146145-36.983034l-95.123803-16.341341 165.30556-170.121955c7.052579-7.224593 10.320847-17.545439 8.600706-27.522258l-38.875189-235.659331 199.536368 109.745003c9.63279 5.332437 21.32975 5.332437 30.96254 0l199.19234-110.433059-38.015118 235.831346c-1.548127 9.976818 1.548127 20.297665 8.77272 27.522258l164.617504 168.2298L634.732068 494.347052c-10.492861 1.548127-19.609609 8.428691-24.081975 18.061482L511.397951 724.84596l-100.112212-211.74937c-7.568621-15.997312-26.662187-22.877877-42.659499-15.309256-15.997312 7.568621-22.877877 26.662187-15.309256 42.659499l129.182597 273.502436c5.332437 11.180917 16.513355 18.40551 28.898371 18.40551 0 0 0 0 0 0 12.385016 0 23.737947-7.224593 28.898371-18.40551l120.753906-258.537208 270.406182-41.799429c11.868974-1.892155 21.673778-10.148833 25.458088-21.501764 3.78431-11.352931 0.860071-23.909961-7.568621-32.510667l-196.956157-201.256509 45.927768-284.855367c1.892155-12.040988-3.268268-24.25399-13.245087-31.306568C779.911977-61.946582 773.547455-63.838737 767.010919-63.838737z"  horiz-adv-x="1024" />

    
    <glyph glyph-name="chexiao" unicode="&#59572;" d="M570.015428 799.99914l-6.208198 0c-157.215858 0-275.80809-112.480366-275.80809-261.631931l0-122.368069 0-64 0-242.720065-104.959656 106.112189c-12.416396 12.576374-32.671738 12.672705-45.248112 0.25631-12.576374-12.447359-12.672705-32.671738-0.25631-45.248112l158.495686-160.25545c6.239161-6.335493 14.496116-9.504099 22.751351-9.504099 8.12794 0 16.25588 3.103239 22.496761 9.247789 0.032684 0.032684 0.032684 0.063647 0.063647 0.096331 0.032684 0.032684 0.063647 0.032684 0.096331 0.063647l159.359226 158.911974c12.512727 12.480043 12.54369 32.735385 0.063647 45.248112-12.480043 12.576374-32.735385 12.512727-45.248112 0.063647l-103.616181-103.296224L351.99742 351.99914l0 64 0 122.368069c0 112.671308 91.07249 197.631931 211.80809 197.631931l6.208198 0c116.576159 0 197.984572-81.279398 197.984572-197.631931l0-506.368069c0-17.695686 14.303454-32.00086 32.00086-32.00086s32.00086 14.303454 32.00086 32.00086L832 538.367209C832 689.983819 721.824701 799.99914 570.015428 799.99914z"  horiz-adv-x="1024" />

    
    <glyph glyph-name="fenxiang1" unicode="&#59573;" d="M768.73106 192.462288c-35.606921 0-67.945574-14.793214-91.167479-38.359147l-309.109357 171.670082c9.116748 17.545439 14.621199 37.155048 14.621199 58.312783 0 12.55703-2.408198 24.426004-5.676466 35.950949l304.63699 189.215522c22.705863-20.469679 52.464304-33.198723 85.146985-33.198723 70.525785 0 127.978498 57.452713 127.978498 127.978498S837.708718 832.010751 767.182933 832.010751s-127.978498-57.452713-127.978498-127.978498c0-14.621199 2.92424-28.382328 7.396607-41.455401L344.716278 475.253486c-23.049891 22.705863-54.700487 36.983034-89.791366 36.983034-70.525785 0-127.978498-57.452713-127.978498-127.978498s57.452713-127.978498 127.978498-127.978498c25.630102 0 49.540064 7.740635 69.493701 20.813707l321.150344-178.378633c-3.096254-11.008903-5.160423-22.18982-5.160423-34.058794 0-70.525785 57.452713-127.978498 127.978498-127.978498s127.978498 57.452713 127.978498 127.978498S839.256845 192.462288 768.73106 192.462288zM767.182933 768.021502c35.262893 0 63.989249-28.726356 63.989249-63.989249s-28.726356-63.989249-63.989249-63.989249-63.989249 28.726356-63.989249 63.989249S731.92004 768.021502 767.182933 768.021502zM191.107677 384.086007c0 35.262893 28.726356 63.989249 63.989249 63.989249s63.989249-28.726356 63.989249-63.989249-28.726356-63.989249-63.989249-63.989249S191.107677 348.823114 191.107677 384.086007zM768.73106 0.494541c-35.262893 0-63.989249 28.726356-63.989249 63.989249s28.726356 63.989249 63.989249 63.989249 63.989249-28.726356 63.989249-63.989249C832.720309 29.048883 803.993953 0.494541 768.73106 0.494541z"  horiz-adv-x="1024" />

    
    <glyph glyph-name="gengduo" unicode="&#59574;" d="M223.962372 288.102133c-52.980346 0-95.983874 43.003528-95.983874 95.983874s43.003528 95.983874 95.983874 95.983874 95.983874-43.003528 95.983874-95.983874S276.942718 288.102133 223.962372 288.102133zM511.913993 288.102133c-52.980346 0-95.983874 43.003528-95.983874 95.983874s43.003528 95.983874 95.983874 95.983874 95.983874-43.003528 95.983874-95.983874S564.894339 288.102133 511.913993 288.102133zM800.037628 288.102133c-52.980346 0-95.983874 43.003528-95.983874 95.983874s43.003528 95.983874 95.983874 95.983874 95.983874-43.003528 95.983874-95.983874S852.84596 288.102133 800.037628 288.102133z"  horiz-adv-x="1024" />

    
    <glyph glyph-name="xiangshang3" unicode="&#59575;" d="M512-64c-247.039484 0-448 200.960516-448 448S264.960516 832 512 832 960 631.039484 960 384 759.039484-64 512-64zM512 768c-211.744443 0-384-172.255557-384-384s172.255557-384 384-384 384 172.255557 384 384S723.744443 768 512 768zM694.463217 437.632361l-158.495686 160.25545c-9.34412 9.471415-23.167639 11.840129-34.784142 7.135385-0.736245-0.287273-1.312512-0.992555-2.016073-1.343475-2.975944-1.47249-5.951888-3.072275-8.447897-5.5356-0.032684-0.032684-0.032684-0.063647-0.063647-0.096331-0.032684-0.032684-0.063647-0.032684-0.096331-0.063647l-159.359226-158.911974c-12.512727-12.480043-12.54369-32.735385-0.063647-45.248112 6.239161-6.271845 14.463432-9.407768 22.65674-9.407768 8.160624 0 16.352211 3.103239 22.591372 9.34412l103.616181 103.296224 0-305.056632c0-17.695686 14.336138-31.99914 32.00086-31.99914s32.00086 14.303454 32.00086 31.99914L544.00258 498.752748l104.959656-106.112189c6.239161-6.335493 14.496116-9.504099 22.751351-9.504099 8.12794 0 16.25588 3.072275 22.496761 9.247789C706.783282 404.800645 706.912297 425.055987 694.463217 437.632361z"  horiz-adv-x="1024" />

    
    <glyph glyph-name="xiangxia5" unicode="&#59576;" d="M512-64c-247.039484 0-448 200.960516-448 448S264.960516 832 512 832 960 631.039484 960 384 759.039484-64 512-64zM512 768c-211.744443 0-384-172.255557-384-384s172.255557-384 384-384 384 172.255557 384 384S723.744443 768 512 768zM694.559548 373.855987c-12.54369 12.607338-33.375299 12.640022-45.951673 0.063647l-104.608735-103.903454L543.99914 576.672598c0 17.759333-14.208843 32.160839-32.00086 32.160839-17.759333 0-32.00086-14.399785-32.00086-32.160839l0-308.319849-105.215966 106.688456c-12.480043 12.607338-32.704421 12.736353-45.311759 0.25631-12.640022-12.512727-12.672705-32.895364-0.192662-45.504421l159.359226-161.055342c6.271845-6.335493 14.592447-9.567746 22.880366-9.567746 8.160624 0 16.383174 3.168606 22.624056 9.311437 0.032684 0.063647 0.032684 0.063647 0.063647 0.127295 0.032684 0 0.063647 0 0.096331 0.063647l160.191802 159.679183C707.072275 340.895256 707.103239 361.279613 694.559548 373.855987z"  horiz-adv-x="1024" />

    
    <glyph glyph-name="xiangyou2" unicode="&#59577;" d="M512-64c-247.039484 0-448 200.960516-448 448S264.960516 832 512 832 960 631.039484 960 384 759.039484-64 512-64zM512 768c-211.744443 0-384-172.255557-384-384s172.255557-384 384-384 384 172.255557 384 384S723.744443 768 512 768zM732.959548 394.847574c-0.032684 0.127295-0.192662 0.25631-0.25631 0.383604-1.536138 3.615858-3.648542 7.071738-6.591802 10.047682-0.032684 0.032684-0.063647 0.032684-0.096331 0.063647-0.032684 0.032684-0.032684 0.063647-0.063647 0.096331l-158.911974 159.359226c-12.480043 12.480043-32.704421 12.576374-45.248112 0.063647-12.512727-12.480043-12.54369-32.735385-0.063647-45.248112l103.328907-103.616181L320 415.99742c-17.664722 0-31.99914-14.336138-31.99914-32.00086s14.336138-32.00086 31.99914-32.00086l306.752748 0-106.112189-104.959656c-12.576374-12.447359-12.672705-32.671738-0.25631-45.248112 6.239161-6.335493 14.496116-9.504099 22.751351-9.504099 8.12794 0 16.25588 3.103239 22.496761 9.247789l160.25545 158.495686C735.328262 369.407553 737.72794 383.232791 732.959548 394.847574z"  horiz-adv-x="1024" />

    
    <glyph glyph-name="xiangzuo2" unicode="&#59580;" d="M512-64c-247.039484 0-448 200.960516-448 448S264.960516 832 512 832 960 631.039484 960 384 759.039484-64 512-64zM512 768c-211.744443 0-384-172.255557-384-384s172.255557-384 384-384 384 172.255557 384 384S723.744443 768 512 768zM290.367854 371.647252c0.032684-0.127295 0.192662-0.25631 0.25631-0.383604 1.536138-3.615858 3.648542-7.071738 6.591802-10.047682 0.032684-0.032684 0.063647-0.032684 0.096331-0.063647s0.032684-0.063647 0.063647-0.096331l158.911974-159.359226c12.480043-12.512727 32.704421-12.576374 45.248112-0.063647 12.512727 12.480043 12.54369 32.704421 0.063647 45.248112l-103.327187 103.616181 305.056632 0c17.664722 0 31.99914 14.336138 31.99914 32.00086s-14.336138 32.00086-31.99914 32.00086L396.576374 414.499126l106.112189 104.959656c12.576374 12.447359 12.672705 32.671738 0.25631 45.248112-6.240882 6.335493-14.496116 9.504099-22.751351 9.504099-8.12794 0-16.25588-3.103239-22.496761-9.247789l-160.25545-158.495686C288.00086 397.087273 285.632146 383.296439 290.367854 371.647252z"  horiz-adv-x="1024" />

    
    <glyph glyph-name="androidgengduo" unicode="&#59581;" d="M415.930119 672.209642c0 52.980346 43.003528 95.983874 95.983874 95.983874s95.983874-43.003528 95.983874-95.983874-43.003528-95.983874-95.983874-95.983874S415.930119 619.229296 415.930119 672.209642zM415.930119 384.258021c0 52.980346 43.003528 95.983874 95.983874 95.983874s95.983874-43.003528 95.983874-95.983874-43.003528-95.983874-95.983874-95.983874S415.930119 331.277675 415.930119 384.258021zM415.930119 96.134386c0 52.980346 43.003528 95.983874 95.983874 95.983874s95.983874-43.003528 95.983874-95.983874-43.003528-95.983874-95.983874-95.983874S415.930119 43.326054 415.930119 96.134386z"  horiz-adv-x="1024" />

    
    <glyph glyph-name="cuowu" unicode="&#58945;" d="M547.2 384l416 416c9.6 9.6 9.6 25.6 0 35.2s-25.6 9.6-35.2 0l-416-416-416 416c-9.6 9.6-25.6 9.6-35.2 0s-9.6-25.6 0-35.2l416-416-416-416c-9.6-9.6-9.6-25.6 0-35.2s25.6-9.6 35.2 0l416 416 416-416c9.6-9.6 25.6-9.6 35.2 0s9.6 25.6 0 35.2L547.2 384z"  horiz-adv-x="1024" />

    
    <glyph glyph-name="erweima" unicode="&#58946;" d="M384 832l-249.6 0c-51.2 0-89.6-41.6-89.6-89.6l0-227.2c0-51.2 41.6-89.6 89.6-89.6l249.6 0c51.2 0 89.6 41.6 89.6 89.6l0 227.2C473.6 790.4 435.2 832 384 832zM428.8 515.2c0-25.6-19.2-44.8-44.8-44.8l-249.6 0c-25.6 0-44.8 19.2-44.8 44.8l0 227.2c0 25.6 19.2 44.8 44.8 44.8l249.6 0c25.6 0 44.8-19.2 44.8-44.8L428.8 515.2zM192 704l134.4 0 0-134.4-134.4 0 0 134.4ZM377.6 352l-243.2 0c-48 0-86.4-38.4-86.4-89.6l0-220.8c0-48 38.4-89.6 86.4-89.6l243.2 0c48 0 86.4 38.4 86.4 89.6l0 220.8C467.2 313.6 425.6 352 377.6 352zM422.4 44.8c0-25.6-19.2-44.8-44.8-44.8l-243.2 0c-25.6 0-44.8 19.2-44.8 44.8l0 220.8c0 25.6 19.2 44.8 44.8 44.8l243.2 0c25.6 0 44.8-19.2 44.8-44.8L422.4 44.8zM192 227.2l131.2 0 0-131.2-131.2 0 0 131.2ZM633.6 425.6l249.6 0c51.2 0 89.6 41.6 89.6 89.6l0 227.2c0 51.2-41.6 89.6-89.6 89.6l-249.6 0c-51.2 0-89.6-41.6-89.6-89.6l0-227.2C544 464 585.6 425.6 633.6 425.6zM588.8 742.4c0 25.6 19.2 44.8 44.8 44.8l249.6 0c25.6 0 44.8-19.2 44.8-44.8l0-227.2c0-25.6-19.2-44.8-44.8-44.8l-249.6 0c-25.6 0-44.8 19.2-44.8 44.8L588.8 742.4zM700.8 704l134.4 0 0-134.4-134.4 0 0 134.4ZM572.8 179.2l137.6 0c12.8 0 22.4 9.6 22.4 22.4l0 137.6c0 12.8-9.6 22.4-22.4 22.4l-137.6 0c-12.8 0-22.4-9.6-22.4-22.4l0-137.6C550.4 188.8 560 179.2 572.8 179.2zM886.4 332.8l0-38.4c0-12.8 12.8-25.6 25.6-25.6l38.4 0c12.8 0 25.6 12.8 25.6 25.6l0 38.4c0 12.8-12.8 25.6-25.6 25.6l-38.4 0C899.2 358.4 886.4 348.8 886.4 332.8zM582.4-48l48 0c12.8 0 22.4 9.6 22.4 22.4l0 48c0 12.8-9.6 22.4-22.4 22.4l-48 0c-12.8 0-22.4-9.6-22.4-22.4l0-48C560-38.4 569.6-48 582.4-48zM944 192l-99.2 0c-16 0-28.8-12.8-28.8-28.8l0-44.8-48 0c-19.2 0-32-12.8-32-32l0-99.2c0-16 12.8-28.8 28.8-28.8l179.2-3.2c16 0 28.8 12.8 28.8 28.8l0 179.2C972.8 179.2 960 192 944 192z"  horiz-adv-x="1024" />

    
    <glyph glyph-name="lajixiang" unicode="&#58949;" d="M944 704l-188.8 0 0 44.8c0 54.4-44.8 99.2-99.2 99.2l-294.4 0c-54.4 0-99.2-44.8-99.2-99.2l0-44.8-179.2 0c-12.8 0-25.6-9.6-25.6-25.6 0-12.8 9.6-25.6 25.6-25.6l60.8 0 0 0 0-633.6c0-54.4 44.8-99.2 99.2-99.2l550.4 0c54.4 0 99.2 44.8 99.2 99.2l0 630.4 0 3.2 51.2 0c12.8 0 25.6 9.6 25.6 25.6C966.4 691.2 960 704 944 704zM316.8 748.8c0 25.6 22.4 48 48 48l294.4 0c25.6 0 48-22.4 48-48l0-44.8-390.4 0L316.8 748.8zM841.6 28.8c0-28.8-16-57.6-41.6-57.6l-550.4 0c-25.6 0-54.4 19.2-54.4 44.8l3.2 636.8 643.2 0 0 0L841.6 28.8zM368 515.2c-16 0-25.6-9.6-25.6-25.6l0-342.4c0-16 12.8-25.6 25.6-25.6 12.8 0 25.6 9.6 25.6 25.6l0 342.4C390.4 502.4 384 515.2 368 515.2zM528 515.2c-16 0-25.6-9.6-25.6-25.6l0-342.4c0-16 12.8-25.6 25.6-25.6 12.8 0 25.6 9.6 25.6 25.6l0 342.4C550.4 502.4 544 515.2 528 515.2zM688 515.2c-16 0-25.6-9.6-25.6-25.6l0-342.4c0-16 12.8-25.6 25.6-25.6 12.8 0 25.6 9.6 25.6 25.6l0 342.4C710.4 502.4 704 515.2 688 515.2z"  horiz-adv-x="1024" />

    
    <glyph glyph-name="saoyisao" unicode="&#58953;" d="M864 848l-697.6 0c-48 0-83.2-41.6-83.2-89.6l0-208c0-12.8 9.6-25.6 22.4-25.6s22.4 9.6 22.4 25.6l0 208c0 22.4 16 41.6 38.4 41.6l697.6 0c22.4 0 38.4-19.2 38.4-41.6l0-208c0-12.8 9.6-25.6 22.4-25.6s22.4 9.6 22.4 25.6l0 208C947.2 806.4 908.8 848 864 848zM924.8 214.4c-12.8 0-22.4-9.6-22.4-25.6l0-179.2c0-22.4-16-41.6-38.4-41.6l-697.6 0c-22.4 0-38.4 19.2-38.4 41.6L128 192c0 12.8-9.6 25.6-22.4 25.6s-22.4-9.6-22.4-25.6l0-179.2c0-51.2 38.4-89.6 83.2-89.6l697.6 0c48 0 83.2 41.6 83.2 89.6L947.2 192C947.2 204.8 937.6 214.4 924.8 214.4zM921.6 352c12.8 0 22.4 9.6 22.4 22.4 0 12.8-9.6 22.4-22.4 22.4l-819.2 0c-12.8 0-22.4-9.6-22.4-22.4 0-12.8 9.6-22.4 22.4-22.4L921.6 352z"  horiz-adv-x="1024" />

    
    <glyph glyph-name="shangfan" unicode="&#58954;" d="M873.6 476.8l-355.2 361.6c-9.6 9.6-22.4 9.6-32 0l-355.2-368c-9.6-9.6-9.6-22.4 0-32 9.6-9.6 22.4-9.6 32 0l316.8 329.6 0-828.8c0-12.8 9.6-22.4 22.4-22.4s22.4 9.6 22.4 22.4l0 822.4 310.4-316.8c9.6-9.6 22.4-9.6 32 0C883.2 454.4 883.2 470.4 873.6 476.8z"  horiz-adv-x="1024" />

    
    <glyph glyph-name="shezhi" unicode="&#58955;" d="M512 198.4c102.4 0 182.4 83.2 182.4 185.6 0 102.4-83.2 185.6-182.4 185.6-102.4 0-182.4-83.2-182.4-185.6C329.6 281.6 412.8 198.4 512 198.4L512 198.4zM512 249.6c-73.6 0-134.4 60.8-134.4 134.4 0 73.6 60.8 134.4 134.4 134.4 73.6 0 134.4-60.8 134.4-134.4C646.4 310.4 585.6 249.6 512 249.6L512 249.6zM249.015232 52.821408c35.2-28.8 73.6-51.2 112-67.2 41.6 38.4 96 60.8 150.4 60.8 57.6 0 108.8-22.4 150.4-60.8 41.6 16 80 38.4 112 67.2-12.8 54.4-3.2 112 22.4 163.2 28.8 48 73.6 86.4 128 102.4 3.2 22.4 6.4 44.8 6.4 67.2 0 22.4-3.2 44.8-6.4 67.2-54.4 16-99.2 54.4-128 102.4-28.8 48-35.2 108.8-22.4 163.2-35.2 28.8-73.6 51.2-112 67.2-41.6-38.4-92.8-60.8-150.4-60.8-54.4 0-108.8 22.4-150.4 60.8-41.6-16-80-38.4-112-67.2 12.8-54.4 3.2-112-22.4-163.2-28.8-48-73.6-86.4-128-102.4-3.2-22.4-6.4-44.8-6.4-67.2 0-22.4 3.2-44.8 6.4-67.2 54.4-16 99.2-54.4 128-102.4C252.215232 164.821408 261.815232 107.221408 249.015232 52.821408M361.015232-62.378592c-54.4 19.2-105.6 48-150.4 89.6-6.4 6.4-9.6 16-6.4 22.4 16 48 9.6 99.2-16 140.8-25.6 44.8-64 73.6-112 83.2-9.6 3.2-16 9.6-16 19.2-6.4 28.8-9.6 60.8-9.6 89.6 0 28.8 3.2 57.6 9.6 89.6 3.2 9.6 9.6 16 16 19.2 48 12.8 89.6 41.6 112 83.2 25.6 44.8 28.8 92.8 16 140.8-3.2 9.6 0 19.2 6.4 22.4 44.8 38.4 96 67.2 150.4 89.6 9.6 3.2 16 0 22.4-6.4 35.2-35.2 80-57.6 128-57.6 48 0 96 19.2 128 57.6 6.4 6.4 16 9.6 22.4 6.4 54.4-19.2 105.6-48 150.4-89.6 6.4-6.4 9.6-16 6.4-22.4-16-48-9.6-99.2 16-140.8 25.6-44.8 64-73.6 112-83.2 9.6-3.2 16-9.6 16-19.2 6.4-28.8 9.6-60.8 9.6-89.6 0-28.8-3.2-57.6-9.6-89.6-3.2-9.6-9.6-16-16-19.2-48-12.8-89.6-41.6-112-83.2-25.6-44.8-28.8-92.8-16-140.8 3.2-9.6 0-19.2-6.4-22.4-44.8-38.4-96-67.2-150.4-89.6-9.6-3.2-16 0-22.4 6.4-35.2 35.2-80 57.6-128 57.6-48 0-96-19.2-128-57.6-3.2-3.2-9.6-6.4-16-6.4C364.215232-62.378592 361.015232-62.378592 361.015232-62.378592z"  horiz-adv-x="1024" />

    
    <glyph glyph-name="shijian" unicode="&#58957;" d="M512 832c-256 0-460.8-208-460.8-460.8s208-460.8 460.8-460.8 460.8 208 460.8 460.8S768 832 512 832zM512-44.8c-227.2 0-412.8 185.6-412.8 412.8s185.6 412.8 412.8 412.8 412.8-185.6 412.8-412.8S742.4-44.8 512-44.8zM809.6 352l-278.4 0 0 281.6c0 12.8-9.6 22.4-22.4 22.4-12.8 0-22.4-9.6-22.4-22.4l0-307.2c0-12.8 9.6-22.4 22.4-22.4 0 0 3.2 0 3.2 0l297.6 0c12.8 0 22.4 9.6 22.4 22.4C832 342.4 822.4 352 809.6 352z"  horiz-adv-x="1024" />

    
    <glyph glyph-name="shouhuodizhi" unicode="&#58959;" d="M518.4 848c-214.4 0-390.4-176-390.4-393.6 0-48 16-99.2 41.6-156.8 28.8-57.6 70.4-118.4 118.4-182.4 35.2-41.6 73.6-83.2 108.8-121.6 12.8-12.8 25.6-25.6 35.2-35.2 6.4-6.4 12.8-9.6 12.8-12.8l0 0c38.4-38.4 102.4-38.4 137.6 0 3.2 3.2 6.4 6.4 12.8 12.8 9.6 9.6 22.4 22.4 35.2 35.2 38.4 38.4 73.6 80 108.8 121.6 51.2 60.8 92.8 124.8 118.4 182.4 28.8 57.6 41.6 108.8 41.6 156.8C908.8 672 732.8 848 518.4 848zM822.4 320c-25.6-54.4-64-112-115.2-172.8-35.2-41.6-70.4-83.2-105.6-118.4-12.8-12.8-25.6-25.6-35.2-35.2-6.4-6.4-9.6-9.6-12.8-12.8-19.2-19.2-51.2-19.2-70.4 0l0 0c-3.2 3.2-6.4 6.4-12.8 12.8-9.6 9.6-22.4 22.4-35.2 35.2-35.2 38.4-73.6 76.8-105.6 118.4-48 60.8-86.4 118.4-115.2 172.8-25.6 51.2-38.4 96-38.4 134.4 0 192 153.6 345.6 342.4 345.6 188.8 0 342.4-153.6 342.4-345.6C860.8 416 848 371.2 822.4 320zM518.4 633.6c-96 0-169.6-76.8-169.6-172.8 0-96 76.8-172.8 169.6-172.8s169.6 76.8 169.6 172.8C688 556.8 614.4 633.6 518.4 633.6zM518.4 339.2c-67.2 0-121.6 54.4-121.6 124.8s54.4 124.8 121.6 124.8c67.2 0 121.6-54.4 121.6-124.8S585.6 339.2 518.4 339.2z"  horiz-adv-x="1024" />

    
    <glyph glyph-name="shouye" unicode="&#58960;" d="M969.6 393.6l-118.4 112-323.2 300.8c-9.6 9.6-22.4 9.6-32 0l-313.6-297.6c-3.2-3.2-6.4-6.4-9.6-9.6l-118.4-112c-9.6-9.6-9.6-22.4 0-32s22.4-9.6 32 0l83.2 80 0-393.6c0-48 41.6-89.6 92.8-89.6l83.2 0c38.4 0 70.4 28.8 70.4 67.2l0 217.6 99.2 0 99.2 0 0-217.6c0-35.2 32-67.2 70.4-67.2l83.2 0c51.2 0 92.8 38.4 92.8 89.6l0 396.8 80-73.6c9.6-9.6 22.4-9.6 32 0C979.2 371.2 979.2 384 969.6 393.6zM809.6 38.4c0-25.6-19.2-44.8-44.8-44.8l-83.2 0c-12.8 0-22.4 9.6-22.4 22.4L659.2 256c0 12.8-9.6 22.4-22.4 22.4l-121.6 0-121.6 0c-12.8 0-22.4-9.6-22.4-22.4l0-240c0-12.8-9.6-22.4-22.4-22.4l-83.2 0c-25.6 0-44.8 19.2-44.8 44.8l0 438.4 294.4 281.6 294.4-281.6L809.6 38.4z"  horiz-adv-x="1024" />

    
    <glyph glyph-name="shuaxin" unicode="&#58961;" d="M960 265.6c-12.8 3.2-25.6-3.2-32-12.8-76.8-204.8-320-307.2-544-227.2-224 80-342.4 307.2-265.6 512 76.8 204.8 320 307.2 544 227.2 92.8-32 172.8-92.8 224-172.8l-92.8 0c-12.8 0-25.6-9.6-25.6-22.4 0-12.8 9.6-22.4 25.6-22.4l153.6 0c12.8 0 25.6 9.6 25.6 22.4l0 140.8c0 12.8-9.6 22.4-25.6 22.4-12.8 0-25.6-9.6-25.6-22.4l0-89.6c-57.6 86.4-140.8 150.4-246.4 188.8-249.6 86.4-518.4-28.8-608-256-86.4-230.4 44.8-486.4 294.4-572.8 249.6-86.4 518.4 28.8 608 256C979.2 246.4 972.8 259.2 960 265.6z"  horiz-adv-x="1024" />

    
    <glyph glyph-name="sousuo1" unicode="&#58962;" d="M966.4-28.8l-230.4 227.2c60.8 67.2 96 156.8 96 256 0 217.6-176 390.4-390.4 390.4-217.6 0-390.4-176-390.4-390.4 0-217.6 176-390.4 390.4-390.4 99.2 0 188.8 35.2 256 96l230.4-227.2c9.6-9.6 28.8-9.6 38.4 0C979.2-54.4 979.2-38.4 966.4-28.8zM102.4 454.4c0 185.6 150.4 339.2 339.2 339.2s339.2-150.4 339.2-339.2c0-89.6-35.2-172.8-92.8-233.6-3.2 0-3.2-3.2-6.4-3.2-3.2-3.2-3.2-3.2-3.2-6.4-60.8-57.6-144-92.8-233.6-92.8C256 115.2 102.4 268.8 102.4 454.4z"  horiz-adv-x="1024" />

    
    <glyph glyph-name="tishi" unicode="&#58964;" d="M508.8 851.2c-256 0-464-208-464-464s208-464 464-464 464 208 464 464S764.8 851.2 508.8 851.2zM508.8-28.8c-230.4 0-416 185.6-416 416s185.6 416 416 416 416-185.6 416-416S739.2-28.8 508.8-28.8zM521.6 243.2c12.8 0 22.4 9.6 22.4 22.4l0 428.8c0 12.8-9.6 22.4-22.4 22.4-12.8 0-22.4-9.6-22.4-22.4l0-428.8C496 256 508.8 243.2 521.6 243.2zM521.6 147.2m-35.2 0a1.1 1.1 0 1 0 70.4 0 1.1 1.1 0 1 0-70.4 0Z"  horiz-adv-x="1024" />

    
    <glyph glyph-name="wancheng" unicode="&#58965;" d="M486.4 265.6c-19.2-19.2-48-19.2-67.2-3.2l-137.6 131.2-32-35.2 137.6-131.2c38.4-35.2 96-35.2 134.4 3.2l281.6 297.6-35.2 32L486.4 265.6zM512 844.8c-252.8 0-460.8-204.8-460.8-460.8s204.8-460.8 460.8-460.8 460.8 204.8 460.8 460.8S764.8 844.8 512 844.8zM512-28.8c-227.2 0-412.8 185.6-412.8 412.8s185.6 412.8 412.8 412.8 412.8-185.6 412.8-412.8S739.2-28.8 512-28.8z"  horiz-adv-x="1024" />

    
    <glyph glyph-name="xiafan" unicode="&#58971;" d="M921.6 332.8c-9.6 9.6-25.6 9.6-35.2 0L544 0l0 822.4c0 12.8-9.6 22.4-25.6 22.4s-25.6-9.6-25.6-22.4L492.8 0l-342.4 339.2c-9.6 9.6-25.6 9.6-35.2 0-9.6-9.6-9.6-22.4 0-32l384-377.6c6.4-6.4 12.8-6.4 19.2-6.4 0 0 0 0 0 0 3.2 0 3.2 0 6.4 0 0 0 0 0 3.2 0 3.2 0 6.4 3.2 9.6 6.4l380.8 371.2C931.2 307.2 931.2 323.2 921.6 332.8z"  horiz-adv-x="1024" />

    
    <glyph glyph-name="xiangshangjiantou" unicode="&#58973;" d="M966.4 227.2l-435.2 432c-9.6 9.6-25.6 9.6-35.2 0l-441.6-432c-9.6-9.6-9.6-25.6 0-35.2 9.6-9.6 25.6-9.6 35.2 0l425.6 416 416-416c9.6-9.6 25.6-9.6 35.2 0S976 217.6 966.4 227.2z"  horiz-adv-x="1024" />

    
    <glyph glyph-name="xiangxiajiantou" unicode="&#58974;" d="M966.4 572.8c-9.6 9.6-25.6 9.6-35.2 0l-416-416-425.6 416c-9.6 9.6-25.6 9.6-35.2 0-9.6-9.6-9.6-25.6 0-35.2l441.6-432c9.6-9.6 25.6-9.6 35.2 0l435.2 432C976 550.4 976 563.2 966.4 572.8z"  horiz-adv-x="1024" />

    
    <glyph glyph-name="xiangyoujiantou" unicode="&#58975;" d="M761.6 406.4l-432 435.2c-9.6 9.6-25.6 9.6-35.2 0-9.6-9.6-9.6-25.6 0-35.2l416-416-416-425.6c-9.6-9.6-9.6-25.6 0-35.2s25.6-9.6 35.2 0l432 441.6C771.2 380.8 771.2 396.8 761.6 406.4z"  horiz-adv-x="1024" />

    
    <glyph glyph-name="xiangzuojiantou" unicode="&#58976;" d="M729.6-35.2l-416 425.6 416 416c9.6 9.6 9.6 25.6 0 35.2-9.6 9.6-25.6 9.6-35.2 0l-432-435.2c-9.6-9.6-9.6-25.6 0-35.2l432-441.6c9.6-9.6 25.6-9.6 35.2 0C739.2-60.8 739.2-44.8 729.6-35.2z"  horiz-adv-x="1024" />

    
    <glyph glyph-name="yanjing" unicode="&#58977;" d="M515.2 672c-307.2 0-492.8-313.6-492.8-313.6s214.4-304 492.8-304 492.8 304 492.8 304S822.4 672 515.2 672zM832 243.2c-102.4-86.4-211.2-140.8-320-140.8s-217.6 51.2-320 140.8c-35.2 32-70.4 64-99.2 99.2-6.4 6.4-9.6 12.8-16 19.2 3.2 6.4 9.6 12.8 12.8 19.2 25.6 35.2 57.6 70.4 92.8 102.4 99.2 89.6 208 144 329.6 144s230.4-54.4 329.6-144c35.2-32 64-67.2 92.8-102.4 3.2-6.4 9.6-12.8 12.8-19.2-3.2-6.4-9.6-12.8-16-19.2C902.4 310.4 870.4 275.2 832 243.2zM512 550.4c-96 0-169.6-76.8-169.6-169.6 0-96 76.8-169.6 169.6-169.6 96 0 169.6 76.8 169.6 169.6C681.6 473.6 604.8 550.4 512 550.4zM512 256c-67.2 0-121.6 54.4-121.6 121.6 0 67.2 54.4 121.6 121.6 121.6 67.2 0 121.6-54.4 121.6-121.6C633.6 313.6 579.2 256 512 256z"  horiz-adv-x="1024" />

    
    <glyph glyph-name="zhengque" unicode="&#58980;" d="M969.6 688c-9.6 9.6-25.6 9.6-35.2 0l-508.8-537.6c-19.2-19.2-48-19.2-70.4-3.2l-265.6 252.8c-9.6 9.6-25.6 9.6-35.2 0-9.6-9.6-9.6-25.6 0-35.2l265.6-252.8c38.4-38.4 102.4-35.2 137.6 3.2l508.8 537.6C979.2 662.4 979.2 678.4 969.6 688z"  horiz-adv-x="1024" />

    
    <glyph glyph-name="lingcunwei" unicode="&#58982;" d="M931.2 428.8c-12.8 0-22.4-9.6-22.4-22.4l0-329.6c0-22.4-19.2-41.6-41.6-41.6l-732.8 0c-22.4 0-41.6 19.2-41.6 41.6l0 563.2c0 22.4 19.2 41.6 41.6 41.6l294.4 0c12.8 0 22.4 9.6 22.4 22.4 0 12.8-9.6 22.4-22.4 22.4l-294.4 0c-48 0-89.6-38.4-89.6-89.6l0-563.2c0-48 38.4-89.6 89.6-89.6l732.8 0c48 0 89.6 38.4 89.6 89.6l0 329.6C956.8 416 947.2 428.8 931.2 428.8zM969.6 630.4l-96 108.8c-9.6 9.6-22.4 9.6-35.2 3.2-9.6-9.6-9.6-22.4-3.2-35.2l48-57.6c-67.2 0-147.2-16-224-51.2-134.4-64-227.2-185.6-259.2-371.2-3.2-12.8 6.4-25.6 19.2-28.8 12.8-3.2 25.6 6.4 28.8 19.2 28.8 169.6 112 278.4 230.4 336 44.8 22.4 96 35.2 147.2 41.6 25.6 3.2 51.2 6.4 73.6 3.2l-83.2-73.6c-9.6-9.6-9.6-22.4-3.2-35.2 9.6-9.6 22.4-9.6 35.2-3.2l115.2 99.2C979.2 604.8 979.2 620.8 969.6 630.4z"  horiz-adv-x="1024" />

    
    <glyph glyph-name="duanxin" unicode="&#58951;" d="M958.359001 609.058802c0 64.308655-52.132334 116.440989-116.440989 116.440989L181.453678 725.499791c-64.308655 0-116.440989-52.132334-116.440989-116.440989l0-448.63995c0-64.308655 52.132334-116.440989 116.440989-116.440989l660.464333 0c64.308655 0 116.440989 52.132334 116.440989 116.440989L958.359001 609.058802zM843.814198 683.544237c12.059664 0 23.444968-3.465938 33.519418-8.598842L530.749016 346.652394c-1.227967-1.161453-1.156336-0.916882-1.752924-1.868557-1.426489-1.067308-6.055926-3.922333-15.449877-3.922333-9.397021 0-14.025435 2.75474-15.4509 3.818979-0.676405 1.077541-0.662079 0.716314-1.995447 1.940189l-353.122503 324.412624c11.609409 7.557116 25.445532 12.509918 40.300868 12.509918L843.814198 683.543214zM916.403446 159.515273c0-40.857547-31.730679-73.582879-72.589248-73.582879L183.27721 85.932394c-40.85857 0-75.28566 32.725332-75.28566 73.582879L107.99155 608.342488c0 10.630105 2.860141 20.735253 6.909363 29.882588l351.486236-322.096882c4.91187-5.302773 19.479657-17.676591 47.009663-17.676591 27.799136 0 42.303478 12.618389 47.076178 17.830087l346.800517 328.899822c6.251378-10.860349 9.129938-23.433712 9.129938-36.838L916.403446 159.515273z"  horiz-adv-x="1024" />

    
    <glyph glyph-name="xinxi" unicode="&#58968;" d="M512.50142-62.397886c-119.320573 0-231.499491 46.465265-315.871087 130.837884C112.258737 152.811594 65.792449 264.989489 65.792449 384.311085c0 119.319549 46.466288 231.499491 130.837884 315.871087C281.002952 784.554792 393.180847 831.020056 512.50142 831.020056s231.499491-46.465265 315.871087-130.837884c84.372619-84.372619 130.837884-196.551538 130.837884-315.871087 0-119.321596-46.465265-231.499491-130.837884-315.871087C744.000911-15.932622 631.821993-62.397886 512.50142-62.397886zM512.50142 790.037666c-223.718271 0-405.726581-182.00831-405.726581-405.726581s182.00831-405.726581 405.726581-405.726581c223.718271 0 405.727605 182.00831 405.727605 405.726581S736.220714 790.037666 512.50142 790.037666zM510.150886 120.046353c-18.107403 0-32.745798 14.678304-32.745798 32.785707L477.405087 443.808154c0 18.108426 14.638395 32.785707 32.745798 32.785707 18.107403 0 32.745798-14.678304 32.745798-32.785707l0-290.976094C542.896684 134.724657 528.258289 120.046353 510.150886 120.046353zM511.357364 599.541031m-45.080731 0a44.054 44.054 0 1 0 90.161463 0 44.054 44.054 0 1 0-90.161463 0Z"  horiz-adv-x="1024" />

    
    <glyph glyph-name="daohang" unicode="&#58969;" d="M605.848435-62.708971c-0.36225 0-0.724501 0.008186-1.088798 0.026606-9.098215 0.468674-16.872273 6.712889-19.288299 15.495926L476.898551 347.541647 80.07064 458.16514c-8.760524 2.442632-14.976086 10.218736-15.427364 19.304671-0.451278 9.083889 4.965082 17.437138 13.44215 20.73423L929.251056 829.271226c7.80885 3.038196 16.669658 1.174756 22.597671-4.750187 5.922896-5.92392 7.788383-14.789844 4.751211-22.597671L625.531729-49.241238C622.361527-57.390849 614.518908-62.708971 605.848435-62.708971zM152.537092 481.827049l347.232352-96.79658c7.148817-1.9934 12.726859-7.591909 14.696724-14.746866l94.821599-344.730369 290.525839 746.93166L152.537092 481.827049z"  horiz-adv-x="1024" />

    
    <glyph glyph-name="dizhi" unicode="&#58970;" d="M511.998977 830.709995c-173.638689 0-314.904063-138.294716-314.904063-308.281225 0-77.603449 31.020504-185.005574 85.10633-294.67023 53.746088-108.971877 124.852566-209.287607 195.185424-275.377838 8.955976-9.602705 21.51092-15.08865 34.612309-15.08865 12.913101 0 25.359574 5.358031 34.296107 14.736633 149.549038 140.014894 280.608979 406.358985 280.608979 570.401108C826.904063 692.415278 685.637666 830.709995 511.998977 830.709995zM517.467525-18.127613l-1.128707-1.13894c-0.816598-0.8913-2.232854-1.952468-4.339842-1.952468-2.245134 0-3.695159 1.251503-4.361331 1.997494l-1.294482 1.327228C366.207519 113.420445 238.584863 370.958986 238.584863 522.427746c0 147.109476 122.652458 266.791276 273.414113 266.791276 150.761656 0 273.415137-119.6818 273.415137-266.791276C785.414113 370.516918 657.700383 112.869906 517.467525-18.127613zM513.044796 714.383616c-91.091648 0-165.199483-74.112951-165.199483-165.210739 0-91.076298 74.107835-165.172877 165.199483-165.172877 91.083461 0 165.184133 74.096579 165.184133 165.172877C678.228929 640.270664 604.128257 714.383616 513.044796 714.383616zM513.044796 425.48995c-68.213591 0-123.709533 55.484685-123.709533 123.682927 0 68.219731 55.495942 123.720789 123.709533 123.720789 68.205405 0 123.694183-55.501058 123.694183-123.720789C636.738979 480.974635 581.2502 425.48995 513.044796 425.48995z"  horiz-adv-x="1024" />

    
    <glyph glyph-name="dianping" unicode="&#58983;" d="M818.732963 687.777655c-8.163937 30.466895-27.702945 55.929824-55.019081 71.701019l-96.015797 55.434543c-56.388265 32.55444-128.750339 13.165858-161.304779-43.221384L209.587436 257.607358c-5.41022-4.086062-8.756431-10.701736-8.363482-17.98256l15.232936-282.377252c0.384763-7.143701 4.366448-13.605879 10.574846-17.163915 3.243881-1.860371 6.864338-2.793626 10.488889-2.793626 3.313465 0 6.631024 0.780783 9.667174 2.346441L497.492588 68.705034c4.306072 2.220574 7.503904 5.726421 9.411347 9.79918l279.395338 483.926618c0.296759 0.434905 0.61296 0.849344 0.881067 1.311879 0.357134 0.618077 0.677429 1.248434 0.964978 1.885953l18.789948 32.54523C822.707484 625.49003 826.895877 657.311783 818.732963 687.777655zM589.014024 785.958768c19.584034 5.244444 40.034808 2.555196 57.59065-7.581676l96.015797-55.434543c17.556864-10.135848 30.113855-26.501584 35.361369-46.083571 5.246491-19.580964 2.554172-40.033785-7.581676-57.59065l-9.30083-16.109909L533.629623 734.488513l9.30083 16.109909C553.066301 768.154263 569.43306 780.712277 589.014024 785.958768zM512.535189 697.952388l227.468688-131.329071L496.90828 145.569656l-4.188392 19.609617c-2.114151 9.900487-10.859325 16.692171-20.60734 16.692171-1.394766 0-2.809999-0.140193-4.229325-0.428765l-50.179866-10.211573-13.875009 46.64025c-3.116991 10.475586-13.71435 16.838503-24.430412 14.654768l-50.011021-10.18906-13.328563 46.080501c-1.577938 5.455245-5.288446 10.042727-10.290367 12.726859-5.004991 2.688225-10.878768 3.238764-16.295128 1.539053l-20.392446-6.40692L512.535189 697.952388zM244.301052 224.274182l37.225833 11.69332 12.739139-44.045145c3.053546-10.559497 13.69286-17.005302 24.476461-14.809287l50.15633 10.219759 13.873985-46.638203c3.116991-10.475586 13.71435-16.836457 24.426319-14.654768l48.627511 9.896394 7.93574-37.156248L256.827343-7.925251 244.301052 224.274182z"  horiz-adv-x="1024" />

    
    <glyph glyph-name="duoyuyan" unicode="&#58984;" d="M848.805886 90.427778c70.998007 81.260745 109.779266 184.217628 109.779266 293.14448 0 119.204939-46.421262 231.277434-130.713041 315.569212C744.876861 782.137743 634.94103 828.38402 517.788843 829.786972c-1.924839 0.599657-10.290367 0.592494-12.227486-0.01535C388.878868 828.054515 279.434224 781.840984 196.73471 699.14147 113.863281 616.269018 67.630307 506.539894 66.095347 389.584182c-0.428765-1.64957-0.436952-8.601912-0.021489-10.226922 1.082658-117.628024 47.364751-228.058113 130.660852-311.354214 84.291778-84.291778 196.36325-130.713041 315.569212-130.713041 119.204939 0 231.277434 46.421262 315.569212 130.713041 6.139837 6.139837 12.054547 12.444427 17.789155 18.871813 0.50756 0.453325 1.001817 0.928139 1.471514 1.440815C847.750857 88.987986 848.295256 89.700207 848.805886 90.427778zM107.447151 363.956501l187.501418 0c1.322112-65.678862 9.253758-127.264499 22.505573-182.112688-61.690014-16.687054-100.819197-38.371936-121.076566-51.906184C144.30971 194.663794 111.676475 275.64313 107.447151 363.956501zM195.881272 636.591879c20.090571-13.556761 59.242266-35.461653 121.340579-52.260248-12.998035-54.127781-20.827351-114.778116-22.243607-179.432649L107.525945 404.898982C112.076588 492.268866 144.437623 572.387601 195.881272 636.591879zM917.081898 404.900006 729.628576 404.900006c-1.415232 64.630996-9.240455 125.260865-22.229281 179.37432 61.95505 16.693194 101.235682 38.444591 121.56673 52.020794C880.270505 572.139961 912.537396 492.133789 917.081898 404.900006zM688.677908 404.900006 532.167319 404.900006 532.167319 560.938851c52.209082 1.094938 97.103572 6.453992 135.272893 14.033621C680.000272 522.836045 687.286212 465.103156 688.677908 404.900006zM532.167319 601.884402 532.167319 786.081565c36.84107-10.398838 72.779583-49.205679 100.926644-110.015649 8.810666-19.035542 16.645099-39.641859 23.464411-61.521169C621.531626 607.772506 580.261687 602.937384 532.167319 601.884402zM491.223814 785.726477l0-183.805236c-47.504944 1.12666-88.378863 6.001691-123.120109 12.802584 6.807033 21.812795 14.623046 42.35976 23.409153 61.344137C419.351903 736.207667 454.809463 774.824173 491.223814 785.726477zM491.223814 560.959318l0-156.059312L335.928912 404.900006c1.391696 60.213383 8.679683 117.955482 21.243837 170.099073C395.008472 567.463452 439.487499 562.112584 491.223814 560.959318zM335.893096 363.956501l155.330718 0 0-158.667719c-51.609425-1.194198-96.019891-6.563486-133.821845-14.103206C344.576873 244.072087 337.193719 302.756651 335.893096 363.956501zM491.223814 164.327882l0-182.909843c-36.415374 10.902304-71.871911 49.51881-99.709933 109.659539-8.679683 18.752086-16.409738 39.034015-23.157419 60.551074C402.9964 158.354843 443.773106 163.179732 491.223814 164.327882zM532.167319-18.937049 532.167319 164.391327c47.904033-1.025353 89.103364-5.862521 124.116809-12.656251-6.755868-21.555945-14.497179-41.87369-23.190165-60.656475C604.946902 30.26863 569.008388-8.538211 532.167319-18.937049zM532.167319 205.339948 532.167319 363.956501l156.546406 0c-1.298576-61.096497-8.66024-119.68487-21.445428-172.502819C629.154233 198.986239 584.319096 204.289012 532.167319 205.339948zM729.659275 363.956501l187.501418 0c-4.221138-88.138386-36.732599-168.973436-88.620363-233.635131-20.469194 13.668301-59.635215 35.298947-121.30374 51.868321C720.43724 236.950899 728.33921 298.414763 729.659275 363.956501zM801.518906 667.257296c-18.329461-11.570523-52.309366-29.355585-104.858186-43.493583-19.295462 63.056128-46.110177 115.004267-78.06189 150.97655C689.00025 755.589087 751.833297 717.902766 801.518906 667.257296zM406.007991 774.740262c-31.905664-35.920094-58.690704-87.768973-77.979002-150.702304-52.40351 14.241352-86.370113 32.099069-104.581893 43.587728C273.076422 718.085938 335.777463 755.635135 406.007991 774.740262zM223.917816 99.036853c18.284435 11.535731 52.098565 29.230742 104.332207 43.335994 19.271926-62.60485 45.976124-114.186645 77.757968-149.968593C335.99952 11.449006 273.472442 48.818101 223.917816 99.036853zM618.59883-7.595746c31.801287 35.803437 58.517765 87.426165 77.792761 150.08218 51.984978-14.023388 85.972047-31.631418 104.533798-43.208081C751.3329 48.938851 688.718841 11.478681 618.59883-7.595746z"  horiz-adv-x="1024" />

    
    <glyph glyph-name="fuzhi" unicode="&#58985;" d="M857.373005 830.709995 469.604424 830.709995c-34.211173 0-62.044078-27.832905-62.044078-62.043055l0-10.340509-63.076594 0c-25.993001 0-48.228421-16.346293-57.001225-39.293935L166.626995 719.032496c-34.21015 0-62.043055-27.832905-62.043055-62.043055l0-657.655358c0-34.21015 27.832905-62.043055 62.043055-62.043055l550.115086 0c34.21015 0 62.043055 27.832905 62.043055 62.043055l0 49.634444 78.587869 0c34.21015 0 62.043055 27.832905 62.043055 62.043055L919.41606 768.66694C919.41606 802.877089 891.583155 830.709995 857.373005 830.709995zM344.483752 716.964394l194.402595 0c10.833743 0 19.646456-8.813736 19.646456-19.646456 0-10.833743-8.813736-19.646456-19.646456-19.646456L344.483752 677.671483c-10.833743 0-19.646456 8.813736-19.646456 19.646456C324.836273 708.150658 333.650009 716.964394 344.483752 716.964394zM737.423099-0.665917c0-11.402701-9.278317-20.681018-20.681018-20.681018L166.626995-21.346935c-11.403724 0-20.681018 9.278317-20.681018 20.681018L145.945977 656.989441c0 11.402701 9.277294 20.681018 20.681018 20.681018l120.111588 0c8.197706-24.02723 30.977525-41.362037 57.744145-41.362037l194.402595 0c26.767644 0 49.54644 17.334807 57.744145 41.362037l120.111588 0c11.402701 0 20.681018-9.278317 20.681018-20.681018L737.422076-0.665917zM878.054023 111.011582c0-11.402701-9.278317-20.681018-20.681018-20.681018l-78.587869 0L778.785136 656.989441c0 34.21015-27.832905 62.043055-62.043055 62.043055L595.886549 719.032496c-8.771781 22.947641-31.007201 39.293935-57.001225 39.293935l-89.963964 0L448.921359 768.66694c0 11.403724 9.278317 20.681018 20.683065 20.681018l387.768581 0c11.402701 0 20.681018-9.277294 20.681018-20.681018L878.054023 111.011582zM620.597347 561.747263 260.748652 561.747263c-11.422144 0-20.681018-9.259898-20.681018-20.681018s9.258874-20.681018 20.681018-20.681018l359.849718 0c11.42112 0 20.681018 9.259898 20.681018 20.681018S632.018467 561.747263 620.597347 561.747263zM620.597347 441.798381 260.748652 441.798381c-11.422144 0-20.681018-9.259898-20.681018-20.681018 0-11.42112 9.258874-20.681018 20.681018-20.681018l359.849718 0c11.42112 0 20.681018 9.259898 20.681018 20.681018C641.278365 432.53746 632.018467 441.798381 620.597347 441.798381zM440.673511 321.848475 260.748652 321.848475c-11.422144 0-20.681018-9.259898-20.681018-20.681018 0-11.42112 9.258874-20.681018 20.681018-20.681018l179.924859 0c11.42112 0 20.681018 9.259898 20.681018 20.681018C461.35453 312.588577 452.093609 321.848475 440.673511 321.848475z"  horiz-adv-x="1024" />

    
    <glyph glyph-name="geren" unicode="&#58986;" d="M586.945923 382.418992c55.067176 27.962865 92.91211 85.125773 92.91211 150.998039 0 93.338828-75.937506 169.276335-169.277358 169.276335s-169.275311-75.937506-169.275311-169.276335c0-65.872267 37.844933-123.034151 92.911086-150.998039-95.652524-32.016181-164.778904-122.45496-164.778904-228.743728 0-11.31572 9.17394-20.491707 20.491707-20.491707s20.491707 9.174963 20.491707 20.491707c0 110.36869 89.791026 200.160739 200.160739 200.160739S710.741413 264.043954 710.741413 153.675264c0-11.31572 9.17394-20.491707 20.491707-20.491707s20.491707 9.174963 20.491707 20.491707C751.723803 259.964032 682.598446 350.401788 586.945923 382.418992zM382.287753 533.417031c0 70.742181 57.552787 128.293945 128.292921 128.293945 70.742181 0 128.293945-57.552787 128.293945-128.293945 0-70.741157-57.552787-128.292921-128.293945-128.292921C439.84054 405.123087 382.287753 462.675874 382.287753 533.417031zM827.871087 699.872111C743.498468 784.242683 631.320573 830.709995 512 830.709995S280.500509 784.243707 196.128913 699.872111C111.756293 615.498468 65.291029 503.321596 65.291029 384.001023s46.465265-231.499491 130.837884-315.872111 196.550515-130.837884 315.871087-130.837884 231.498468 46.465265 315.871087 130.837884S958.708971 264.680451 958.708971 384.001023 912.243707 615.499491 827.871087 699.872111zM512-21.726581c-223.718271 0-405.726581 182.007287-405.726581 405.727605 0 223.718271 182.00831 405.726581 405.726581 405.726581s405.726581-182.007287 405.726581-405.726581C917.726581 160.280706 735.718271-21.726581 512-21.726581z"  horiz-adv-x="1024" />

    
    <glyph glyph-name="shoucang1" unicode="&#58988;" d="M248.482281-42.000324c-4.306072 0-8.592702 1.336438-12.211113 3.967358-6.395664 4.646833-9.600659 12.521175-8.264221 20.314675l48.430012 282.363949L71.288626 464.617086c-5.66093 5.519714-7.698333 13.772678-5.255701 21.291932 2.444679 7.519254 8.943696 13.000082 16.768919 14.137998l283.508006 41.195238L493.099535 798.146345c3.498684 7.089465 10.720156 11.577686 18.627243 11.577686 7.907087 0 15.127536-4.489244 18.627243-11.577686l126.788661-256.904091 283.510052-41.195238c7.823176-1.137916 14.322194-6.618744 16.766872-14.137998 2.442632-7.519254 0.405229-15.773242-5.255701-21.291932L747.012502 264.645658l48.430012-282.363949c1.336438-7.7935-1.868557-15.667841-8.264221-20.314675-6.399757-4.646833-14.878872-5.257747-21.874193-1.582031L511.726777 93.701334 258.146385-39.614997C255.107165-41.211355 251.789607-42.000324 248.482281-42.000324zM130.422422 464.988546 313.25654 286.771585c4.894474-4.7727 7.128351-11.647271 5.974062-18.385742l-43.163055-251.64532 225.994104 118.811989c6.048763 3.180436 13.282514 3.180436 19.331277 0l225.992057-118.811989-43.163055 251.64532c-1.154289 6.738471 1.079588 13.613042 5.974062 18.385742l182.833095 178.216961-252.665557 36.71418c-6.767124 0.983397-12.614296 5.233188-15.641235 11.362792L511.726777 742.02107 398.729214 513.065518c-3.025916-6.129604-8.874111-10.379395-15.639189-11.362792L130.422422 464.988546z"  horiz-adv-x="1024" />

    
    <glyph glyph-name="xiangqu" unicode="&#58995;" d="M512-26.110425c-0.002047 0-0.004093 0-0.00614 0-5.574972 0.002047-10.916631 2.229784-14.84101 6.186909L370.833887 107.469919c-1.613754 1.622964-164.173107 165.007101-187.469696 188.304713C114.596991 364.540809 74.209142 441.7114 66.567092 518.942365c-7.609305 76.902484 18.981307 150.036132 74.874291 205.929116 54.793954 54.79293 121.562637 77.752852 193.072297 66.412572 59.33027-9.41237 120.361275-42.176588 177.48632-95.104031 57.122999 52.92642 118.155027 85.690638 177.485297 95.104031 71.513754 11.351536 138.279367-11.616572 193.072297-66.412572 55.891961-55.892985 82.482573-129.026632 74.874291-205.929116-7.643074-77.230965-48.0299-154.400532-116.7971-223.167732-50.870598-50.868551-311.172065-313.063135-313.795822-315.705312C522.914584-23.886781 517.572926-26.110425 512-26.110425zM298.928207 752.320647c-47.080272 0-89.998757-19.104103-127.914298-57.020668-47.547923-47.547923-69.27476-107.107413-62.829977-172.238806 6.67912-67.496254 42.902112-135.863341 104.751762-197.714014 23.334451-23.334451 185.92962-186.758498 187.568956-188.406021l111.505583-112.451118c56.269561 56.671721 255.224846 257.029958 299.05305 300.858162 61.850673 61.850673 98.073666 130.216737 104.750739 197.714014 6.446829 65.131393-15.280008 124.690884-62.828954 172.238806-45.573965 45.574988-98.377588 63.974034-156.947542 54.680367-55.707766-8.838296-114.234741-42.590004-169.251775-97.609085-3.922333-3.921309-9.240455-6.125511-14.785751-6.125511s-10.863419 2.203178-14.785751 6.124488c-55.020104 55.020104-113.546056 88.772836-169.252799 97.610108C318.119291 751.541911 308.437791 752.320647 298.928207 752.320647z"  horiz-adv-x="1024" />

    
    <glyph glyph-name="daerxidejiantou" unicode="&#59056;" d="M319.680904-121.809707l469.521555 482.636395c3.584649 4.15775 5.112582 9.678251 4.869845 15.12724 0.242737 5.447982-1.285196 10.968482-4.869845 15.117167L319.680904 873.701448c-6.707998 7.795781-17.588853 7.795781-24.30793 0-6.71807-7.796788-6.71807-20.441263 0-28.237044l457.197372-469.510476-457.197372-469.519541c-6.71807-7.793767-6.71807-20.44932 0-28.244094C302.092051-129.607502 312.9719-129.607502 319.680904-121.809707z"  horiz-adv-x="1024" />

    
    <glyph glyph-name="renminbi" unicode="&#58916;" d="M825.914526 814.087409 596.294848 421.409005l181.924399 0 0-84.294848L566.346769 337.114157 566.346769 216.204389l211.872478 0 0-86.517469L566.346769 129.68692l0-174.154435L457.636858-44.467515 457.636858 129.68692 239.129262 129.68692 239.129262 216.204389 457.636858 216.204389 457.636858 337.11518 239.129262 337.11518l0 84.294848 186.353268 0L198.084451 814.087409l122.012891 0C426.585655 618.860029 491.293399 495.35925 514.222621 443.60247l2.206248 0c7.387247 21.441335 28.844955 64.707744 64.340377 129.783879L710.553125 814.087409 825.914526 814.087409z"  horiz-adv-x="1024" />

    
    <glyph glyph-name="facebook" unicode="&#58938;" d="M740.693333 356.693333l0 187.733333-157.013333 0L583.68 657.066667c0 0 0 51.2 58.026667 51.2 58.026667 0 153.6 0 153.6 0L795.306667 896 549.546667 896C378.88 896 365.226667 694.613333 365.226667 694.613333l0-146.773333-136.533333 0 0-187.733333 136.533333 0L365.226667-128l215.04 0L580.266667 356.693333 740.693333 356.693333z"  horiz-adv-x="1024" />

    
    <glyph glyph-name="shipin" unicode="&#59121;" d="M0 828.731392l0-860.16 1024 0 0 860.16L0 828.731392zM163.84 9.531392 40.96 9.531392l0 163.82976 122.88 0L163.84 9.531392zM163.84 214.321152 40.96 214.321152l0 163.84 122.88 0L163.84 214.321152zM163.84 419.121152 40.96 419.121152l0 163.84 122.88 0L163.84 419.121152zM163.84 623.921152 40.96 623.921152l0 163.84 122.88 0L163.84 623.921152zM819.2 555.661312l0-136.54016 0-40.96 0-153.6 0-215.02976L204.8 9.531392l0 215.02976 0 153.6 0 40.96 0 136.54016 0 232.09984 614.4 0L819.2 555.661312zM983.04 9.531392 860.16 9.531392l0 163.82976 122.88 0L983.04 9.531392zM983.04 214.321152 860.16 214.321152l0 163.84 122.88 0L983.04 214.321152zM983.04 419.121152 860.16 419.121152l0 163.84 122.88 0L983.04 419.121152zM983.04 623.921152 860.16 623.921152l0 163.84 122.88 0L983.04 623.921152zM409.6 564.201472l0-331.07968 286.72 165.520384L409.6 564.201472zM450.56 493.241344l163.84-94.600192-163.84-94.600192L450.56 493.241344z"  horiz-adv-x="1024" />

    
    <glyph glyph-name="xin" unicode="&#58933;" d="M700.856275 740.457458c-74.768891 0-144.295384-72.696696-190.046381-127.260405C465.073224 667.773042 395.563104 740.457458 320.754305 740.457458c-134.789892 0-244.443291-105.780185-244.443291-235.799424 0-77.56968 39.277562-131.98808 70.844511-175.712931 91.752704-126.998439 322.464249-285.038872 332.234777-291.701618 9.410324-6.414083 20.424168-9.629311 31.401174-9.629311 11.005658 0 21.998013 3.215228 31.397081 9.629311 9.782807 6.662747 240.514819 164.703179 332.23887 291.701618 31.586392 43.723827 70.873164 98.143251 70.873164 175.712931C945.299567 634.678296 835.645145 740.457458 700.856275 740.457458L700.856275 740.457458zM700.856275 740.457458"  horiz-adv-x="1024" />

    
    <glyph glyph-name="shouye1" unicode="&#58967;" d="M983.7517984 352.91004799999996L526.24824213 809.89512747c-0.61780373 0.88086187-1.30219093 1.72788693-2.08918186 2.51596906-3.7526688 3.73847893-8.67545387 5.571152-13.5807744 5.5187584-4.90532053 0.0534848-9.83028907-1.78027947-13.5829568-5.5187584-0.78589867-0.78699093-1.47028587-1.6351072-2.08918187-2.5148768L37.39931733 352.91004799999996c-7.3994592-7.36125547-7.3994592-19.30910613 0-26.69000853 2.39262613-2.39153493 5.27643947-3.99280427 8.32944-4.82891414 1.80101867-0.56322773 3.71555627-0.866672 5.7010432-0.866672l95.65593494 0 0-344.3690048c0-10.55724587 8.5761248-19.11263147 19.1311872-19.11263146l248.70433813 0c10.5550624 0 19.1311872 8.5553856 19.1311872 19.11263146L434.05244693 263.13089173000003l153.04840427 0 0-286.97544426c0-10.55724587 8.5761248-19.11263147 19.1311872-19.11263147l248.70433813 0c10.55724587 0 19.13009493 8.5553856 19.13009494 19.11263147L874.06647147 320.52554453000005l95.65593493 0c1.98439573 0 3.90002453 0.30344427 5.7010432 0.8655808 3.05299947 0.83720107 5.9357216 2.4373792 8.32944 4.83000534C991.15125653 333.60094187000004 991.15125653 345.54879253 983.7517984 352.91004799999996z"  horiz-adv-x="1024" />

    
    <glyph glyph-name="jiantou34" unicode="&#59184;" d="M449.386 618.56l250.667-250.773-250.667-250.667z"  horiz-adv-x="1024" />

    
    <glyph glyph-name="jiantou" unicode="&#58978;" d="M0.030699 362.697835-0.031722 403.630083 952.195627 405.149693 952.258049 364.217445ZM848.538803 481.316419l175.520549-117.109208L848.538803 364.207212 848.538803 481.316419zM848.538803 481.316419"  horiz-adv-x="1040" />

    
    </font>
</defs>
</svg>
